<?xml version="1.0" encoding="utf-8"?>
<!-- Generator: Adobe Illustrator 25.3.1, SVG Export Plug-In . SVG Version: 6.00 Build 0)  -->
<svg version="1.0" id="Layer_1" xmlns="http://www.w3.org/2000/svg" xmlns:xlink="http://www.w3.org/1999/xlink" x="0px" y="0px"
	 viewBox="0 0 607.2 500" style="enable-background:new 0 0 607.2 500;" xml:space="preserve">
<style type="text/css">
	.st0{fill:none;stroke:#4E7CDC;stroke-width:2;}
	.st1{fill:#4E7CDC;}
	.st2{fill:none;stroke:#3AB9CC;stroke-width:2;}
	.st3{fill:#3AB9CC;}
	.st4{fill:#3AB9CC;stroke:#3AB9CC;stroke-width:2;}
	.st5{opacity:0.3;}
	.st6{opacity:0.2;}
	.st7{fill:none;stroke:#32E1A9;stroke-width:0.5;}
	.st8{clip-path:url(#SVGID_2_);}
	.st9{fill:#32E1A9;}
	.st10{opacity:0.2;fill-rule:evenodd;clip-rule:evenodd;fill:#32E1A9;enable-background:new    ;}
	.st11{opacity:0.3;fill-rule:evenodd;clip-rule:evenodd;fill:#32E1A9;enable-background:new    ;}
	.st12{fill:none;stroke:#32E1A9;stroke-width:2;}
	.st13{clip-path:url(#SVGID_4_);}
	.st14{opacity:0.4;}
	.st15{fill-rule:evenodd;clip-rule:evenodd;fill:#32E1A9;}
	.st16{clip-path:url(#SVGID_6_);}
	.st17{opacity:0.5;}
	.st18{opacity:0.7;}
	.st19{opacity:0.6;}
	.st20{opacity:0.7;fill-rule:evenodd;clip-rule:evenodd;fill:#32E1A9;enable-background:new    ;}
	.st21{opacity:0.5;fill-rule:evenodd;clip-rule:evenodd;fill:#32E1A9;enable-background:new    ;}
	.st22{opacity:0.8;fill-rule:evenodd;clip-rule:evenodd;fill:#32E1A9;enable-background:new    ;}
	.st23{clip-path:url(#SVGID_8_);}
	.st24{opacity:0.6;fill-rule:evenodd;clip-rule:evenodd;fill:#32E1A9;enable-background:new    ;}
	.st25{clip-path:url(#SVGID_10_);}
	.st26{clip-path:url(#SVGID_12_);}
	.st27{opacity:0.7;fill:none;stroke:#32E1A9;stroke-width:0.5;enable-background:new    ;}
	.st28{opacity:0.3;fill:none;stroke:#32E1A9;stroke-width:0.5;enable-background:new    ;}
	.st29{opacity:0.3;fill:#32E1A9;enable-background:new    ;}
	.st30{clip-path:url(#SVGID_14_);}
	.st31{clip-path:url(#SVGID_16_);}
</style>
<g>
	<path class="st0" d="M242.86,325.44H231.9v22.93h24.98v-77.94L223.49,237H206.8l-4.58-4.58 M194.14,224.33h-29.88 M194.14,224.33
		l-4.84,4.85h-35.54 M194.14,224.33l8.08,8.09 M202.22,232.41h-42l-3.77,3.78"/>
	<ellipse class="st1" cx="155.11" cy="237.53" rx="2.15" ry="2.16"/>
	<ellipse class="st1" cx="151.87" cy="228.37" rx="2.15" ry="2.16"/>
	<ellipse class="st1" cx="162.1" cy="224.6" rx="2.15" ry="2.16"/>
	<path class="st0" d="M245.12,328.98h-9.38v15.76h17.38v-72.63l-21.29-21.31h-13.98 M166.96,242.17l8.62,8.63h30.69 M217.85,250.79
		l-7.54-7.55h-24.77 M217.85,250.79h-11.58 M206.27,250.79l-7.53,7.55h-19.93"/>
	<ellipse class="st1" cx="184.19" cy="243.24" rx="2.15" ry="2.16"/>
	<ellipse class="st1" cx="165.89" cy="240.55" rx="2.15" ry="2.16"/>
	<ellipse class="st1" cx="177.19" cy="258.34" rx="2.15" ry="2.16"/>
	<path class="st0" d="M166.19,155.54h-11.58l-3.5,3.5 M144.92,165.24l6.19-6.2 M151.11,159.04v9.71"/>
	<ellipse class="st1" cx="151.11" cy="170.1" rx="2.15" ry="2.16"/>
	<ellipse class="st1" cx="144.65" cy="165.78" rx="2.15" ry="2.16"/>
	<ellipse class="st1" cx="168.34" cy="155.54" rx="2.15" ry="2.16"/>
	<path class="st0" d="M186.29,188.43v7.28l11.03,11.05"/>
	<ellipse class="st1" cx="198.13" cy="207.3" rx="2.15" ry="2.16"/>
	<ellipse class="st1" cx="186.28" cy="186.81" rx="2.15" ry="2.16"/>
	<path class="st0" d="M251.47,176.01l4.03,4.04v10.78"/>
	<ellipse class="st1" cx="250.66" cy="175.2" rx="2.15" ry="2.16"/>
	<ellipse class="st1" cx="255.5" cy="191.91" rx="2.15" ry="2.16"/>
	<path class="st0" d="M239.33,81.49l-8.89,8.9v7.01"/>
	<ellipse class="st1" cx="240.03" cy="80.52" rx="2.15" ry="2.16"/>
	<path class="st0" d="M231.6,99.29c0,0.64-0.52,1.16-1.16,1.16c-0.63,0-1.15-0.52-1.15-1.16s0.52-1.16,1.15-1.16
		C231.08,98.13,231.6,98.65,231.6,99.29z"/>
	<ellipse class="st1" cx="179.61" cy="168.73" rx="2.15" ry="2.16"/>
	<ellipse class="st1" cx="146.76" cy="150.94" rx="2.15" ry="2.16"/>
	<ellipse class="st1" cx="177.99" cy="138" rx="2.15" ry="2.16"/>
	<ellipse class="st1" cx="202.76" cy="133.68" rx="2.15" ry="2.16"/>
	<ellipse class="st1" cx="179.61" cy="105.11" rx="2.15" ry="2.16"/>
	<ellipse class="st1" cx="149.45" cy="127.22" rx="2.15" ry="2.16"/>
	<ellipse class="st1" cx="165.07" cy="118.05" rx="2.15" ry="2.16"/>
	<ellipse class="st1" cx="146.76" cy="138" rx="2.15" ry="2.16"/>
	<ellipse class="st1" cx="222.69" cy="163.88" rx="2.15" ry="2.16"/>
	<ellipse class="st1" cx="213.54" cy="163.88" rx="2.15" ry="2.16"/>
	<path class="st0" d="M255.26,370.18h-6.51v14.67h15.4V266.59l-51.69-51.76v-13.21 M212.46,201.62l5.38-5.39v-17.25 M212.46,201.62
		l-15.35-15.37 M180.96,170.08l8.88,8.9 M217.84,178.97l4.58-4.58v-9.17 M217.84,178.97l-4.57-4.58v-9.17 M197.11,186.25v-22.11
		 M197.11,186.25l-7.27-7.28 M197.11,164.15l-8.08-8.09v-9.97 M197.11,164.15l5.66-5.66v-23.45 M189.03,114.27V138 M189.03,146.09
		l7.27-7.28v-22.91l12.12-12.13 M189.03,146.09V138 M189.03,138l-9.42-9.43v-21.3 M189.84,178.97v-11.05L178,156.06 M150.53,128.56
		l15.62,15.64 M170.19,148.24v-7.82l-5.39-5.39V119.4 M170.19,148.24l7.81,7.82 M170.19,148.24l-4.04-4.04 M178,156.06v-16.18
		 M166.15,144.2h-12.92 M153.23,144.2l-5.39-5.39 M153.23,144.2l-5.39,5.66"/>
	<ellipse class="st1" cx="209.77" cy="102.41" rx="2.15" ry="2.16"/>
	<path class="st0" d="M190.45,112.66c0,0.64-0.51,1.16-1.15,1.16s-1.15-0.52-1.15-1.16c0-0.64,0.51-1.16,1.15-1.16
		S190.45,112.02,190.45,112.66z"/>
	<path class="st2" d="M247.02,392.82h24.17v-30.1V253.31l-11.04-11.05 M234.04,168.66v47.45l5.92,5.93 M234.04,168.66l2.69-2.7
		v-50.68 M234.04,168.66l-14.27-14.29 M219.77,154.37v-15.1 M219.77,154.37l8.34-8.36v-13.48 M239.96,222.04v-8.63l2.42-2.43v-2.7
		 M239.96,222.04l10.23,10.24 M250.19,232.28v-25.34l-7.27-7.28v-13.75 M250.19,232.28l9.96,9.97 M242.92,162.73v23.18
		 M242.92,185.91l-3.77-3.77 M260.15,242.26v-9.97 M260.15,224.46v7.82 M260.15,232.28l-7-7.01v-12.94"/>
	<ellipse class="st3" cx="238.35" cy="181.06" rx="2.15" ry="2.16"/>
	<ellipse class="st3" cx="242.65" cy="206.4" rx="2.15" ry="2.16"/>
	<ellipse class="st3" cx="253.42" cy="210.71" rx="2.15" ry="2.16"/>
	<ellipse class="st3" cx="243.19" cy="161.11" rx="2.15" ry="2.16"/>
	<ellipse class="st3" cx="260.42" cy="222.58" rx="2.15" ry="2.16"/>
	<ellipse class="st3" cx="228.11" cy="130.92" rx="2.15" ry="2.16"/>
	<path class="st2" d="M221.19,137.93c0,0.64-0.52,1.16-1.16,1.16c-0.63,0-1.15-0.52-1.15-1.16s0.52-1.16,1.15-1.16
		C220.67,136.77,221.19,137.29,221.19,137.93z"/>
	<ellipse class="st3" cx="236.86" cy="113.75" rx="2.15" ry="2.16"/>
	<path class="st0" d="M256.82,377.68v-3.29h-4.67v6.31h7.91v-112.2l-55.74-55.8h-9.69l-7.81-7.82 M171.21,189.24v-12.67l-6.2-6.2
		v-4.58 M171.21,189.24h-7l-7.27-7.28 M171.21,189.24l15.61,15.64 M186.82,204.87h-10.23l-5.38-5.39"/>
	<ellipse class="st1" cx="170.73" cy="198.13" rx="2.15" ry="2.16"/>
	<ellipse class="st1" cx="156.2" cy="180.34" rx="2.15" ry="2.16"/>
	<path class="st0" d="M166.5,164.16c0,0.64-0.51,1.16-1.15,1.16s-1.15-0.52-1.15-1.16c0-0.64,0.51-1.16,1.15-1.16
		S166.5,163.52,166.5,164.16z"/>
	<path class="st0" d="M208.94,187.35l-5.92-5.93v-12.13"/>
	<ellipse class="st1" cx="210.01" cy="188.43" rx="2.15" ry="2.16"/>
	<path class="st0" d="M204.17,167.4c0,0.64-0.52,1.16-1.15,1.16c-0.64,0-1.16-0.52-1.16-1.16c0-0.64,0.52-1.16,1.16-1.16
		C203.65,166.24,204.17,166.76,204.17,167.4z"/>
	<path class="st0" d="M244.27,376.32v12.93h23.4v-15.88v-109.9l-44.16-43.37 M223.51,220.1v-27.23l6.47-6.47v-14.02 M223.51,220.1
		l3.77-3.77v-13.48"/>
	<ellipse class="st1" cx="229.98" cy="170.49" rx="2.15" ry="2.16"/>
	<path class="st0" d="M228.44,200.69c0,0.64-0.52,1.16-1.16,1.16c-0.63,0-1.15-0.52-1.15-1.16c0-0.64,0.52-1.16,1.15-1.16
		C227.92,199.53,228.44,200.05,228.44,200.69z"/>
	<path class="st0" d="M210.54,225.34l-7.54-7.55h-21.81l-35.54-35.59 M166.65,204.05h-7.54 M144.03,196.5l7.54,7.55h7.54
		 M159.11,204.05l-9.69,9.71"/>
	<ellipse class="st1" cx="148.34" cy="215.1" rx="2.15" ry="2.16"/>
	<ellipse class="st1" cx="142.96" cy="195.15" rx="2.15" ry="2.16"/>
	<ellipse class="st1" cx="144.57" cy="181.13" rx="2.15" ry="2.16"/>
	<path class="st0" d="M213.04,226.42c0,0.64-0.52,1.16-1.16,1.16c-0.63,0-1.15-0.52-1.15-1.16s0.52-1.16,1.15-1.16
		C212.52,225.26,213.04,225.78,213.04,226.42z"/>
	<path class="st0" d="M243.61,233.2l20.46,20.49"/>
	<ellipse class="st1" cx="242.26" cy="231.85" rx="2.15" ry="2.16"/>
	<path class="st0" d="M266.57,255.03c0,0.64-0.52,1.16-1.15,1.16c-0.64,0-1.16-0.52-1.16-1.16c0-0.64,0.52-1.16,1.16-1.16
		C266.05,253.88,266.57,254.39,266.57,255.03z"/>
	<path class="st2" d="M242.33,337.96h4.09v-5.09h-7.01v8.15h9.95v-67.08l-4.77-4.78h-18.66 M191.2,269.16l-2.69-2.7h-39.85l-3.5-3.5
		 M191.2,269.16l-6.46,6.47h-8.08 M191.2,269.16h28.27 M157.28,278.86l3.23-3.24h16.15 M176.66,275.63l-5.65,5.66 M219.47,269.16
		l-5.92-5.93 M219.47,269.16h6.46 M225.93,269.16l-10.77,10.78h-12.65"/>
	<path class="st4" d="M157.35,279.94c0,0.64-0.52,1.16-1.15,1.16c-0.64,0-1.16-0.52-1.16-1.16c0-0.64,0.52-1.16,1.16-1.16
		C156.83,278.79,157.35,279.3,157.35,279.94z"/>
	<path class="st4" d="M202.05,279.94c0,0.64-0.52,1.16-1.16,1.16c-0.63,0-1.15-0.52-1.15-1.16c0-0.64,0.52-1.16,1.15-1.16
		C201.53,278.79,202.05,279.3,202.05,279.94z"/>
	<path class="st4" d="M213.36,261.61c0,0.64-0.52,1.16-1.16,1.16c-0.63,0-1.15-0.52-1.15-1.16s0.52-1.16,1.15-1.16
		C212.84,260.45,213.36,260.97,213.36,261.61z"/>
	<path class="st4" d="M170.82,282.64c0,0.64-0.52,1.16-1.16,1.16c-0.63,0-1.15-0.52-1.15-1.16s0.52-1.16,1.15-1.16
		C170.3,281.48,170.82,282,170.82,282.64z"/>
	<path class="st4" d="M144.97,261.61c0,0.64-0.52,1.16-1.16,1.16c-0.63,0-1.15-0.52-1.15-1.16s0.52-1.16,1.15-1.16
		C144.45,260.45,144.97,260.97,144.97,261.61z"/>
	<path class="st0" d="M283.9,65.12v9.44l5.38,5.39l8.35-8.36 M307.32,46.79v15.1l-9.69,9.7 M297.63,71.59V53.26"/>
	<ellipse class="st1" cx="297.63" cy="51.91" rx="2.15" ry="2.16"/>
	<ellipse class="st1" cx="284.17" cy="63.23" rx="2.15" ry="2.16"/>
	<ellipse class="st1" cx="307.32" cy="44.9" rx="2.15" ry="2.16"/>
	<path class="st0" d="M292.95,86.76v8.63l8.62,8.63 M301.57,104.01l9.15-9.44v-18.6 M301.57,104.01V81.37"/>
	<ellipse class="st1" cx="292.96" cy="84.87" rx="2.15" ry="2.16"/>
	<ellipse class="st1" cx="301.57" cy="79.48" rx="2.15" ry="2.16"/>
	<ellipse class="st1" cx="310.73" cy="74.09" rx="2.15" ry="2.16"/>
	<path class="st0" d="M335.98,69.24v14.02l8.35-8.36"/>
	<ellipse class="st1" cx="335.98" cy="67.32" rx="2.15" ry="2.16"/>
	<ellipse class="st1" cx="345.4" cy="73.55" rx="2.15" ry="2.16"/>
	<path class="st0" d="M390.36,98.78v24.26l7.54-7.55v-6.2"/>
	<path class="st0" d="M391.52,96.62c0,0.64-0.52,1.16-1.16,1.16c-0.63,0-1.15-0.52-1.15-1.16c0-0.64,0.52-1.16,1.15-1.16
		C391,95.47,391.52,95.98,391.52,96.62z"/>
	<ellipse class="st1" cx="397.9" cy="107.41" rx="2.15" ry="2.16"/>
	<path class="st4" d="M444.33,173.55c0,0.64-0.52,1.16-1.16,1.16c-0.63,0-1.15-0.52-1.15-1.16c0-0.64,0.52-1.16,1.15-1.16
		C443.81,172.39,444.33,172.91,444.33,173.55z"/>
	<path class="st2" d="M320.01,393.68v-3.95h4.33v6.33h-6.87v-110.9l56.81-58.54h8.89 M383.17,226.62l15.34-15.1 M383.17,226.62
		v-12.4l8.61-8.36v-5.12 M398.51,211.52h12.66 M398.51,211.52v-8.63l21.81-21.84 M445.36,194.27l-8.21,8.63 M437.15,202.89
		l-8.21,8.63h-17.77 M437.15,202.89v-12.67 M411.17,211.52l9.15-9.43v-7.82 M428.13,173.24l-7.81,7.82 M420.32,181.06h15.35
		l7.81-7.82"/>
	<path class="st4" d="M430.37,171.89c0,0.64-0.52,1.16-1.16,1.16c-0.63,0-1.15-0.52-1.15-1.16s0.52-1.16,1.15-1.16
		C429.85,170.74,430.37,171.25,430.37,171.89z"/>
	<path class="st4" d="M448.13,192.92c0,0.64-0.51,1.16-1.15,1.16s-1.15-0.52-1.15-1.16s0.51-1.16,1.15-1.16
		S448.13,192.28,448.13,192.92z"/>
	<ellipse class="st3" cx="437.29" cy="188.61" rx="2.15" ry="2.16"/>
	<path class="st4" d="M393.21,198.85c0,0.64-0.52,1.16-1.16,1.16c-0.63,0-1.15-0.52-1.15-1.16c0-0.64,0.52-1.16,1.15-1.16
		C392.69,197.69,393.21,198.21,393.21,198.85z"/>
	<ellipse class="st3" cx="420.59" cy="192.92" rx="2.15" ry="2.16"/>
	<path class="st2" d="M339.33,349.71h6.74v22.45H321.3v-85.37l47.11-47.17h16.16l12.38-12.94h10.23 M445.69,220.47l-5.93,6.2h-22.35
		 M407.18,226.67l5.66-6.2h16.42 M407.18,226.67h10.23 M417.41,226.67l6.2,6.47"/>
	<ellipse class="st3" cx="424.68" cy="234.22" rx="2.15" ry="2.16"/>
	<ellipse class="st3" cx="446.76" cy="219.12" rx="2.15" ry="2.16"/>
	<ellipse class="st3" cx="430.61" cy="220.74" rx="2.15" ry="2.16"/>
	<path class="st0" d="M335.47,353.79h6.54v14.7h-16.44v-79.23l36.44-36.94h26.92l10.23-10.24 M399.16,242.07h40.12 M399.16,242.07
		l6.73,7.28h14.54 M439.28,242.07l7-6.74 M439.28,242.07l5.92,6.2"/>
	<path class="st0" d="M448.78,233.72c0,0.64-0.52,1.16-1.15,1.16c-0.64,0-1.16-0.52-1.16-1.16c0-0.64,0.52-1.16,1.16-1.16
		C448.26,232.56,448.78,233.08,448.78,233.72z"/>
	<ellipse class="st1" cx="446.01" cy="248.81" rx="2.15" ry="2.16"/>
	<ellipse class="st1" cx="422.32" cy="249.35" rx="2.15" ry="2.16"/>
	<path class="st0" d="M332.77,362.33V358h5.47v6.89h-8.63v-73.62l26.66-27.81h20.46 M406.08,263.45l2.42-2.96h23.43 M406.08,263.45
		l5.92,6.2h16.43l3.5,4.04 M406.08,263.45h-15.89 M431.93,260.49l2.96-2.97 M431.93,260.49l6.73,7.28h11.57 M376.73,263.45l8.89,8.9
		h12.92l6.73,6.47 M376.73,263.45h13.46 M390.19,263.45l4.85-4.58"/>
	<path class="st0" d="M437.39,256.18c0,0.64-0.52,1.16-1.16,1.16c-0.63,0-1.15-0.52-1.15-1.16c0-0.64,0.52-1.16,1.15-1.16
		C436.87,255.02,437.39,255.54,437.39,256.18z"/>
	<ellipse class="st1" cx="433" cy="274.51" rx="2.15" ry="2.16"/>
	<ellipse class="st1" cx="405.54" cy="279.9" rx="2.15" ry="2.16"/>
	<ellipse class="st1" cx="395.85" cy="257.79" rx="2.15" ry="2.16"/>
	<ellipse class="st1" cx="451.85" cy="267.5" rx="2.15" ry="2.16"/>
	<path class="st2" d="M320.64,385.85h7.86v14.43h-15.12v-15.55V282.96l52.5-52.84l0.27-13.48l22.7-22.91 M400.07,182.41
		l-11.22,11.32 M388.85,193.73v-8.49 M424.31,141.16l-13.97,14.02 M401.48,164.07v-8.9 M401.48,164.07l-5.37,5.39 M401.48,164.07
		l8.86-8.9 M396.11,169.47l-7.26,7.28v8.49 M396.11,169.47h19.04l1.62-1.89 M410.34,155.18h10.73l4.31-4.31 M388.85,185.24
		l-7.09-7.14"/>
	<path class="st4" d="M402.58,153.56c0,0.64-0.52,1.16-1.16,1.16c-0.63,0-1.15-0.52-1.15-1.16c0-0.64,0.52-1.16,1.15-1.16
		C402.06,152.4,402.58,152.92,402.58,153.56z"/>
	<path class="st4" d="M419.27,166.5c0,0.64-0.52,1.16-1.16,1.16c-0.63,0-1.15-0.52-1.15-1.16c0-0.64,0.52-1.16,1.15-1.16
		C418.75,165.34,419.27,165.86,419.27,166.5z"/>
	<path class="st4" d="M381.57,176.74c0,0.64-0.51,1.16-1.15,1.16s-1.15-0.52-1.15-1.16s0.51-1.16,1.15-1.16
		S381.57,176.1,381.57,176.74z"/>
	<path class="st4" d="M402.58,181.06c0,0.64-0.52,1.16-1.16,1.16c-0.63,0-1.15-0.52-1.15-1.16s0.52-1.16,1.15-1.16
		C402.06,179.9,402.58,180.42,402.58,181.06z"/>
	<path class="st4" d="M427.88,149.25c0,0.64-0.51,1.16-1.15,1.16s-1.15-0.52-1.15-1.16c0-0.64,0.51-1.16,1.15-1.16
		S427.88,148.61,427.88,149.25z"/>
	<path class="st4" d="M426.81,139.54c0,0.64-0.52,1.16-1.16,1.16c-0.63,0-1.15-0.52-1.15-1.16c0-0.64,0.52-1.16,1.15-1.16
		C426.29,138.39,426.81,138.9,426.81,139.54z"/>
	<path class="st0" d="M309.22,416.51h3.07v5.16h-6.28v-33.79V279.69l29.35-30.19v-10.78l10.23-10.24v-16.71l10.77-10.78v-48.94
		 M356.36,152.03l9.16-8.75v-15.64 M356.36,152.03l-5.92-5.52v-10.78 M365.52,127.64l5.11-4.85v-15.37 M365.52,127.64l-10.24-9.97
		 M370.63,81.28v26.15 M370.63,107.43l-12.92-12.67"/>
	<ellipse class="st1" cx="370.36" cy="79.66" rx="2.15" ry="2.16"/>
	<ellipse class="st1" cx="357" cy="93.78" rx="2.15" ry="2.16"/>
	<ellipse class="st1" cx="354.21" cy="116.32" rx="2.15" ry="2.16"/>
	<ellipse class="st1" cx="350.44" cy="134.22" rx="2.15" ry="2.16"/>
	<path class="st0" d="M268.75,397.13h-4.48v13.31h14.3V212.96l-4.85-4.85v-32.08 M273.72,176.03l-4.03-4.04V139.9 M273.72,176.03
		l12.12-12.13v-11.32l-5.38-5.39v-12.13 M269.69,139.9l-5.39-5.39v-23.99 M269.69,139.9l3.77-3.77v-12.4l13.19-13.21 M257.84,68.73
		l6.46,6.47v16.98 M264.3,92.19l7-7.01V60.11 M264.3,92.19v18.33 M264.3,110.52l12.39-12.4"/>
	<ellipse class="st1" cx="256.76" cy="67.12" rx="2.15" ry="2.16"/>
	<ellipse class="st1" cx="277.66" cy="97.41" rx="2.15" ry="2.16"/>
	<path class="st0" d="M289.15,109.17c0,0.64-0.52,1.16-1.16,1.16c-0.63,0-1.15-0.52-1.15-1.16s0.52-1.16,1.15-1.16
		C288.63,108.02,289.15,108.53,289.15,109.17z"/>
	<ellipse class="st1" cx="271.3" cy="58.59" rx="2.15" ry="2.16"/>
	<ellipse class="st1" cx="280.45" cy="133.43" rx="2.15" ry="2.16"/>
	<path class="st2" d="M272.08,401.04h-4.19v5.64h6.86V219.7l-14.01-14.02v-28.58l-6.73-6.74 M254.01,170.37v-23.99 M254.01,170.37
		l5.66-5.66V155 M254.01,126.42v19.95 M254.01,146.37l-5.65-5.66v-28.04 M248.36,95.96v16.71 M248.36,112.68l7-7.01V83.83"/>
	<path class="st4" d="M249.52,94.61c0,0.64-0.52,1.16-1.16,1.16c-0.63,0-1.15-0.52-1.15-1.16c0-0.64,0.52-1.16,1.15-1.16
		C249,93.46,249.52,93.97,249.52,94.61z"/>
	<path class="st4" d="M255.44,124.81c0,0.64-0.52,1.16-1.15,1.16c-0.64,0-1.16-0.52-1.16-1.16s0.52-1.16,1.16-1.16
		C254.92,123.65,255.44,124.17,255.44,124.81z"/>
	<path class="st4" d="M256.52,81.67c0,0.64-0.52,1.16-1.16,1.16c-0.63,0-1.15-0.52-1.15-1.16c0-0.64,0.52-1.16,1.15-1.16
		C256,80.52,256.52,81.03,256.52,81.67z"/>
	<path class="st4" d="M260.83,153.38c0,0.64-0.52,1.16-1.16,1.16c-0.63,0-1.15-0.52-1.15-1.16s0.52-1.16,1.15-1.16
		C260.31,152.23,260.83,152.74,260.83,153.38z"/>
	<path class="st0" d="M277.53,418.2h8.65V253.27l4.58-4.31v-9.71l5.39-4.85v-13.85l5.38-5.56v-40.32l4.31-3.89v-11.32
		 M298.84,112.01v31.81 M298.84,143.82v2.7l7,7.01v5.93 M298.84,143.82l5.92-5.66v-11.05 M305.84,159.45l7.54-7.01v-31l-4.85-4.58
		v-5.39"/>
	<ellipse class="st1" cx="298.84" cy="111.22" rx="2.15" ry="2.16"/>
	<ellipse class="st1" cx="308.53" cy="111.22" rx="2.15" ry="2.16"/>
	<ellipse class="st1" cx="304.76" cy="126.32" rx="2.15" ry="2.16"/>
	<path class="st2" d="M287.17,437.05v-3.32h-3.75l-0.01,5.81h6.83l0.01-167.11l4.57-4.85v-26.42l9.69-9.17V201.8l9.7-10.24
		 M314.21,191.55V165.4 M314.21,191.55l-5.93-5.39v-7.55"/>
	<path class="st2" d="M309.44,176.99c0,0.64-0.52,1.16-1.16,1.16c-0.63,0-1.15-0.52-1.15-1.16c0-0.64,0.52-1.16,1.15-1.16
		C308.92,175.84,309.44,176.35,309.44,176.99z"/>
	<ellipse class="st3" cx="314.2" cy="164.06" rx="2.15" ry="2.16"/>
	<ellipse class="st1" cx="320.71" cy="63.01" rx="2.15" ry="2.16"/>
	<ellipse class="st1" cx="329.86" cy="55.9" rx="2.15" ry="2.16"/>
	<ellipse class="st1" cx="348.17" cy="82.32" rx="2.15" ry="2.16"/>
	<path class="st0" d="M323.67,135.7l-5.65-5.39V94.72 M323.67,135.7l5.12-4.85v-11.86 M323.67,135.7v29.38 M323.67,165.08v34.51
		l-8.62,8.36v34.51l-8.88,8.63v16.98l-8.08,8.36v152.6h15.37 M323.67,165.08l5.65-5.12v-14.29l10.5-10.51v-23.99 M347.09,83.67
		l-7.27,7.28v20.22 M339.82,111.17l-10.23-10.24V82.86 M329.59,57.52v25.34 M329.59,82.86l-8.88-8.63v-9.7"/>
	<path class="st0" d="M329.94,117.47c0,0.64-0.52,1.16-1.15,1.16c-0.64,0-1.16-0.52-1.16-1.16s0.52-1.16,1.16-1.16
		C329.42,116.31,329.94,116.83,329.94,117.47z"/>
	<ellipse class="st1" cx="318.02" cy="92.57" rx="2.15" ry="2.16"/>
	<path class="st0" d="M345.34,203.41l4.58-4.85v-19.35"/>
	<path class="st0" d="M344.88,205.03c0,0.64-0.52,1.16-1.16,1.16c-0.63,0-1.15-0.52-1.15-1.16s0.52-1.16,1.15-1.16
		C344.36,203.88,344.88,204.39,344.88,205.03z"/>
	<ellipse class="st1" cx="350.18" cy="177.53" rx="2.15" ry="2.16"/>
	<path class="st0" d="M309.89,413.03h6.6v12.12h-14.43V278.05l22.2-22.91v-27.5l10.77-10.78v-21.03 M344.73,168.87l-9.7,9.16v17.79
		 M344.73,168.87v-8.9 M344.73,168.87l-6.47-7.01v-11.77 M335.03,195.83l5.93-5.93v-7.01"/>
	<ellipse class="st1" cx="344.73" cy="158.09" rx="2.15" ry="2.16"/>
	<ellipse class="st1" cx="338.26" cy="148.38" rx="2.15" ry="2.16"/>
	<ellipse class="st1" cx="340.96" cy="181.38" rx="2.15" ry="2.16"/>
	<path class="st0" d="M321.82,216.63l5.66-5.12"/>
	<ellipse class="st1" cx="320.75" cy="217.97" rx="2.15" ry="2.16"/>
	<ellipse class="st1" cx="328.82" cy="209.89" rx="2.15" ry="2.16"/>
	<path class="st0" d="M284.18,430.26h-3.98v12.49h13.87V273.63l4.85-4.15v-16.75l12.63-12.94v-33.93l8.37-7.84v-15.35"/>
	<ellipse class="st1" cx="319.92" cy="180.52" rx="2.15" ry="2.16"/>
	<path class="st0" d="M271.79,414.49h10.61V242.35l5.38-5.39v-13.48 M281.86,185.73l5.92,6.03V210 M287.78,210l-7-7.01 M287.78,210
		l5.39-5.39V182.5l-5.92-5.93 M287.78,210v13.48 M287.78,223.47l2.7-2.43"/>
	<ellipse class="st1" cx="292.1" cy="219.7" rx="2.15" ry="2.16"/>
	<ellipse class="st1" cx="280.25" cy="184.66" rx="2.15" ry="2.16"/>
	<ellipse class="st1" cx="286.17" cy="175.49" rx="2.15" ry="2.16"/>
	<ellipse class="st1" cx="279.71" cy="201.91" rx="2.15" ry="2.16"/>
	<path class="st0" d="M323.65,382.09h9.21v22.34h-23.02v-123.1l42.54-43.13v-19.14l18.84-18.6v-10.24 M381.45,92.89l-3.76,4.04v58.5
		l-6.47,6.47v10.24 M371.22,172.14L390.45,153 M371.22,172.14v18.06 M416.19,127.39l-6.46,6.43 M409.73,133.83v-20.45
		 M409.73,133.83l-10.61,10.55 M399.12,144.38V128.2 M399.12,144.38l-8.67,8.63 M390.45,153l-6.57-6.74v-16.18 M371.22,190.21
		l-7.27-6.74v-13.48"/>
	<path class="st0" d="M418.15,126.31c0,0.64-0.52,1.16-1.15,1.16c-0.64,0-1.16-0.52-1.16-1.16c0-0.64,0.52-1.16,1.16-1.16
		C417.63,125.16,418.15,125.67,418.15,126.31z"/>
	<path class="st0" d="M365.38,168.47c0,0.64-0.52,1.16-1.16,1.16c-0.63,0-1.15-0.52-1.15-1.16c0-0.64,0.52-1.16,1.15-1.16
		C364.86,167.31,365.38,167.83,365.38,168.47z"/>
	<ellipse class="st1" cx="410" cy="111.22" rx="2.15" ry="2.16"/>
	<ellipse class="st1" cx="383.61" cy="127.93" rx="2.15" ry="2.16"/>
	<ellipse class="st1" cx="399.23" cy="126.31" rx="2.15" ry="2.16"/>
	<ellipse class="st1" cx="382.53" cy="91.81" rx="2.15" ry="2.16"/>
	<path class="st0" d="M207.02,117.53c0,2.07-0.06,7.51-0.06,7.08c0-0.43,9.57-11.12,14.33-15.71V88.68"/>
	<ellipse class="st1" cx="221.29" cy="87.07" rx="2.15" ry="2.16"/>
	<ellipse class="st1" cx="207.29" cy="116.72" rx="2.15" ry="2.16"/>
	<path class="st0" d="M209.19,135.07v15.64l2.69,2.7"/>
	<ellipse class="st1" cx="209.19" cy="133.18" rx="2.15" ry="2.16"/>
	<ellipse class="st1" cx="213.5" cy="154.75" rx="2.15" ry="2.16"/>
	<path class="st0" d="M277.17,166.86c0,0.64-0.52,1.16-1.15,1.16c-0.64,0-1.16-0.52-1.16-1.16c0-0.64,0.52-1.16,1.16-1.16
		C276.65,165.71,277.17,166.22,277.17,166.86z"/>
	<ellipse class="st1" cx="274.4" cy="147.45" rx="2.15" ry="2.16"/>
	<path class="st0" d="M275.48,148.8l4.3,4.04v10.51l-2.42,2.16"/>
	<ellipse class="st1" cx="296.15" cy="173.33" rx="2.15" ry="2.16"/>
	<ellipse class="st1" cx="292.38" cy="145.3" rx="2.15" ry="2.16"/>
	<path class="st0" d="M292.39,146.91v14.83l3.76,3.77v5.93"/>
	<g class="st5">
		<g class="st6">
			<path class="st7" d="M134.59,106.75v7.43h-7.5 M134.59,136.49v-7.43h-7.5 M149.58,106.75v7.43h7.5 M149.58,136.49v-7.43h7.5"/>
			<g>
				<defs>
					<rect id="SVGID_1_" x="132.34" y="111.96" width="19.5" height="19.33"/>
				</defs>
				<clipPath id="SVGID_2_">
					<use xlink:href="#SVGID_1_"  style="overflow:visible;"/>
				</clipPath>
				<g class="st8">
					<path class="st9" d="M147.94,118.24l-21.53,14.49h43.05L147.94,118.24z"/>
					<path class="st9" d="M137.46,121.62l-23.85,14.49h47.7L137.46,121.62z"/>
					<ellipse class="st9" cx="139.65" cy="115.82" rx="2.44" ry="2.42"/>
				</g>
			</g>
		</g>
		<path class="st10" d="M209.82,77.02v7.18h7.25v0.5h-7.25v10.9h3.5v3.47h3.74v0.5h-3.74v3.47h-3.5v3.72h-0.5v-3.72h-3.5v-3.47h-11
			v7.18h-0.5v-7.18h-7.24v-0.5h7.24v-10.9h-3.49V84.7h-3.75v-0.5h3.75v-3.46h3.49v-3.72h0.5v3.72h3.5v3.46h11v-7.18H209.82z
			 M198.32,84.7h11v10.9h-2.79l-8.21-8.14V84.7z M197.61,88.17l8.21,8.14v2.76h-11v-10.9H197.61z"/>
		<path class="st11" d="M209.82,136.49v7.18h7.25v0.5h-7.25v10.9h3.5v3.47h3.74v0.5h-3.74v3.47h-3.5v3.72h-0.5v-3.72h-3.5v-3.47h-11
			v7.18h-0.5v-7.18h-7.24v-0.5h7.24v-10.9h-3.49v-3.47h-3.75v-0.5h3.75v-3.47h3.49v-3.71h0.5v3.71h3.5v3.47h11v-7.18H209.82z
			 M198.32,144.17h11v10.9h-2.79l-8.21-8.14V144.17z M197.61,147.63l8.21,8.14v2.76h-11v-10.9H197.61z"/>
		<path class="st7" d="M164.58,225.68v7.43h-7.49 M164.58,255.41v-7.43h-7.49 M179.58,225.68v7.43h7.5 M179.58,255.41v-7.43h7.5"/>
		<g class="st6">
			<path class="st7" d="M164.58,77.02v7.43h-7.5 M164.58,106.76v-7.43h-7.5 M179.58,77.02v7.43h7.5 M179.58,106.76v-7.43h7.5"/>
			<path class="st12" d="M164.28,84.16l15.6,15.46 M164.28,84.16v7.73 M164.28,84.16h7.8 M179.88,99.62v-7.73 M179.88,99.62h-7.8
				 M164.28,99.62l15.6-15.46 M164.28,99.62v-7.73 M164.28,99.62h7.8 M179.88,84.16v7.73 M179.88,84.16h-7.8 M179.88,91.89h-15.6
				 M172.08,99.62V84.16"/>
			<rect x="162.33" y="97.69" class="st9" width="3.9" height="3.87"/>
			<rect x="170.13" y="97.69" class="st9" width="3.9" height="3.87"/>
			<rect x="177.93" y="97.69" class="st9" width="3.9" height="3.87"/>
			<rect x="162.33" y="89.96" class="st9" width="3.9" height="3.87"/>
			<rect x="170.13" y="89.96" class="st9" width="3.9" height="3.87"/>
			<rect x="177.93" y="89.96" class="st9" width="3.9" height="3.87"/>
			<rect x="162.33" y="82.23" class="st9" width="3.9" height="3.87"/>
			<rect x="170.13" y="82.23" class="st9" width="3.9" height="3.87"/>
			<rect x="177.93" y="82.23" class="st9" width="3.9" height="3.87"/>
		</g>
		<path class="st7" d="M284.55,47.29v7.43h-7.5 M284.55,77.02v-7.43h-7.5 M299.55,47.29v7.43h7.5 M299.55,77.02v-7.43h7.5"/>
		<g>
			<defs>
				<rect id="SVGID_3_" x="281.97" y="52.17" width="20.14" height="19.97"/>
			</defs>
			<clipPath id="SVGID_4_">
				<use xlink:href="#SVGID_3_"  style="overflow:visible;"/>
			</clipPath>
			<g class="st13">
				<ellipse class="st9" cx="294.57" cy="54.67" rx="2.52" ry="2.5"/>
				<ellipse class="st9" cx="284.49" cy="59.66" rx="2.52" ry="2.5"/>
				<ellipse class="st9" cx="284.49" cy="69.65" rx="2.52" ry="2.5"/>
				<ellipse class="st9" cx="289.53" cy="69.65" rx="2.52" ry="2.5"/>
				<ellipse class="st9" cx="299.6" cy="69.65" rx="2.52" ry="2.5"/>
				<ellipse class="st9" cx="294.57" cy="64.65" rx="2.52" ry="2.5"/>
				<ellipse class="st9" cx="289.53" cy="64.65" rx="2.52" ry="2.5"/>
				<ellipse class="st9" cx="284.49" cy="64.65" rx="2.52" ry="2.5"/>
				<ellipse class="st9" cx="289.53" cy="59.66" rx="2.52" ry="2.5"/>
				<ellipse class="st9" cx="294.57" cy="59.66" rx="2.52" ry="2.5"/>
				<path class="st9" d="M292.05,54.67c0,1.38-1.13,2.5-2.52,2.5h-5.04c-1.39,0-2.51-1.12-2.51-2.5c0-1.38,1.12-2.5,2.51-2.5h5.04
					C290.92,52.17,292.05,53.29,292.05,54.67z"/>
				<path class="st9" d="M299.6,62.16c-1.39,0-2.52-1.12-2.52-2.5v-4.99c0-1.38,1.13-2.5,2.52-2.5s2.52,1.12,2.52,2.5v4.99
					C302.12,61.04,300.99,62.16,299.6,62.16z"/>
			</g>
		</g>
		<g class="st14">
			<path class="st15" d="M179.83,106.75v7.18h7.25v0.5h-7.5h-0.25v-0.25v-7.43H179.83z M164.33,111.7h-1.25h-1v1v1.24h-4.99v0.5
				h4.99v1.24v1h1h1.41c0.63,1.9,1.97,3.48,3.7,4.45H166c-0.21-0.57-0.76-0.99-1.42-0.99c-0.82,0-1.5,0.67-1.5,1.49
				s0.68,1.49,1.5,1.49c0.66,0,1.21-0.41,1.42-0.99h3.58v0.99v1h1h3h1v-1v-0.53c1.85,0.7,3.33,2.16,4.04,3.99h-0.54h-1v1v2.97v1h1
				h1.25v4.95h0.5v-4.95h1.25h1v-1v-1.24h5v-0.5h-5v-1.24v-1h-1h-1.4c-0.63-1.9-1.97-3.49-3.71-4.45h2.2
				c0.2,0.58,0.76,0.99,1.41,0.99c0.83,0,1.5-0.67,1.5-1.49s-0.67-1.49-1.5-1.49c-0.65,0-1.2,0.41-1.41,0.99h-3.59v-0.99v-1h-1h-3
				h-1v1v0.53c-1.85-0.7-3.32-2.16-4.03-3.99h0.53h1v-1v-2.97v-1h-1h-1.25v-4.95h-0.5V111.7z M164.58,128.8h0.25v0.25v7.43h-0.5
				v-7.18h-7.24v-0.5H164.58z M180.08,129.54v-0.97h-1v0.97H180.08z M172.58,122.11h-1v-0.97h1V122.11z M165.08,114.67v-0.97h-1
				v0.97H165.08z"/>
		</g>
		<path class="st7" d="M374.53,77.02v7.43h-7.5 M374.53,106.76v-7.43h-7.5 M389.53,77.02v7.43h7.5 M389.53,106.76v-7.43h7.5"/>
		<g>
			<defs>
				<rect id="SVGID_5_" x="372.28" y="82.23" width="19.5" height="19.33"/>
			</defs>
			<clipPath id="SVGID_6_">
				<use xlink:href="#SVGID_5_"  style="overflow:visible;"/>
			</clipPath>
			<g class="st16">
				<path class="st9" d="M387.88,88.51L366.35,103h43.05L387.88,88.51z"/>
				<path class="st9" d="M377.4,91.89l-23.85,14.49h47.7L377.4,91.89z"/>
				<ellipse class="st9" cx="379.59" cy="86.09" rx="2.44" ry="2.42"/>
			</g>
		</g>
		<g class="st17">
			<path class="st15" d="M333.29,51.01v3.47h3.75v0.5h-3.75v3.47h-3.25v7.43h3.25v3.47h3.75v0.5h-3.75v3.47h-3.5v3.72h-0.5v-3.72
				h-3.5v-3.22h-7.5v3.22h-3.5v3.72h-0.5v-3.72h-3.5v-3.47h-3.75v-0.5h3.75v-3.47h3.25v-7.43h-3.25v-3.47h-3.75v-0.5h3.75v-3.47h3.5
				v-3.72h0.5v3.72h3.5v3.22h7.5v-3.22h3.5v-3.72h0.5v3.72H333.29z M315.04,65.87v-7.43h3.25v-3.22h7.5v3.22h3.25v7.43h-3.25v3.22
				h-7.5v-3.22H315.04z"/>
		</g>
		<g class="st14">
			<path class="st7" d="M224.57,47.29v7.43h-7.5 M224.57,77.02v-7.43h-7.5 M239.56,47.29v7.43h7.5 M239.56,77.02v-7.43h7.5"/>
			<path class="st15" d="M230.05,52.17h-4.03v3.99h4.03V52.17z M230.05,60.16v-3.99h4.03v-3.99h4.03v3.99h4.03v3.99h-4.03v3.99h4.03
				v3.99h-4.03v3.99h-4.03v-3.99h-4.03v3.99h-4.03v-3.99H222v-3.99h4.02v-3.99H222v-3.99h4.02v3.99H230.05z M230.05,64.15v-3.99
				h4.03v-3.99h4.03v3.99h-4.03v3.99h4.03v3.99h-4.03v-3.99H230.05z M230.05,64.15h-4.03v3.99h4.03V64.15z"/>
		</g>
		<g class="st14">
			<path class="st7" d="M434.51,121.62v7.43h-7.49 M434.51,151.35v-7.43h-7.49 M449.51,121.62v7.43h7.5 M449.51,151.35v-7.43h7.5"/>
			<path class="st15" d="M440,126.5h-4.03v3.99H440V126.5z M440,134.49v-3.99h4.03v-3.99h4.03v3.99h4.03v3.99h-4.03v3.99h4.03v3.99
				h-4.03v3.99h-4.03v-3.99H440v3.99h-4.03v-3.99h-4.03v-3.99h4.03v-3.99h-4.03v-3.99h4.03v3.99H440z M440,138.48v-3.99h4.03v-3.99
				h4.03v3.99h-4.03v3.99h4.03v3.99h-4.03v-3.99H440z M440,138.48h-4.03v3.99H440V138.48z"/>
		</g>
		<g class="st18">
			<path class="st15" d="M241.06,82.97h-1.25v0L241.06,82.97V80h-1.25v-2.97h-0.5V80h-1.25v2.97h1.25v0h-1.25v1.24l0,0v-1.24h-3
				v1.24h-10.24v-7.18h-0.5v7.18h-7.25v0.5h7.25v10.18c-0.71,0.12-1.25,0.73-1.25,1.47c0,0.82,0.67,1.49,1.5,1.49
				c0.82,0,1.5-0.67,1.5-1.49c0-0.74-0.54-1.35-1.25-1.47V84.71h10.24v1.24h3v-1.24l0,0v1.24v0v2.97h1.25v10.16h-10.27
				c-0.12-0.7-0.73-1.24-1.48-1.24c-0.82,0-1.49,0.66-1.49,1.49c0,0.82,0.67,1.49,1.49,1.49c0.75,0,1.36-0.54,1.48-1.24h10.27v7.18
				h0.5v-7.18h7.25v-0.5h-7.25V88.92h1.25v-2.97h3v-1.24h3v-0.5h-3v-1.24H241.06L241.06,82.97z M220.09,99.57h-3.02v-0.5h3.02
				c0.12-0.7,0.73-1.24,1.48-1.24c0.82,0,1.5,0.66,1.5,1.49c0,0.82-0.68,1.49-1.5,1.49C220.82,100.81,220.21,100.27,220.09,99.57z
				 M224.82,103.76v2.99h-0.5v-2.99c-0.71-0.12-1.25-0.73-1.25-1.47c0-0.82,0.67-1.49,1.5-1.49c0.82,0,1.5,0.67,1.5,1.49
				C226.07,103.03,225.53,103.64,224.82,103.76z"/>
		</g>
		<g class="st14">
			<path class="st15" d="M223.07,112.7h1.25v0L223.07,112.7v-2.97h1.25v-2.97h0.5v2.97h1.25v2.97h-1.25v0h1.25v1.24l0,0v-1.24h3
				v1.24h10.25v-7.18h0.5v7.18h7.24v0.5h-7.24v10.18c0.7,0.12,1.24,0.73,1.24,1.47c0,0.82-0.67,1.49-1.49,1.49
				c-0.83,0-1.5-0.67-1.5-1.49c0-0.74,0.54-1.35,1.25-1.47v-10.17h-10.25v1.24h-3v-1.24l0,0v1.24v0v2.97h-1.25v10.16h10.27
				c0.12-0.7,0.73-1.24,1.48-1.24c0.82,0,1.5,0.67,1.5,1.49c0,0.82-0.68,1.49-1.5,1.49c-0.75,0-1.36-0.54-1.48-1.24h-10.27v7.18
				h-0.5v-7.18h-7.25v-0.5h7.25v-10.16h-1.25v-2.97h-3v-1.24h-3v-0.5h3v-1.24H223.07L223.07,112.7z M244.04,129.3h3.02v-0.5h-3.02
				c-0.12-0.7-0.73-1.24-1.48-1.24c-0.82,0-1.49,0.67-1.49,1.49c0,0.82,0.67,1.49,1.49,1.49C243.31,130.54,243.92,130,244.04,129.3z
				 M239.32,133.49v2.99h0.5v-2.99c0.7-0.12,1.24-0.73,1.24-1.47c0-0.82-0.67-1.49-1.49-1.49c-0.83,0-1.5,0.66-1.5,1.49
				C238.07,132.76,238.61,133.37,239.32,133.49z"/>
		</g>
		<g class="st6">
			<path class="st15" d="M301.05,261.36h-1.25v0L301.05,261.36v-2.97h-1.25v-2.97h-0.5v2.97h-1.25v2.97h1.25v0h-1.25v1.24l0,0v-1.24
				h-3v1.24H284.8v-7.18h-0.5v7.18h-7.24v0.5h7.24v10.18c-0.71,0.12-1.25,0.73-1.25,1.47c0,0.82,0.68,1.49,1.5,1.49
				c0.83,0,1.5-0.66,1.5-1.49c0-0.74-0.54-1.35-1.25-1.47V263.1h10.25v1.24h3v-1.24l0,0v1.24v0v2.97h1.25v10.16h-10.27
				c-0.12-0.7-0.74-1.24-1.48-1.24c-0.83,0-1.5,0.67-1.5,1.49c0,0.82,0.67,1.49,1.5,1.49c0.74,0,1.36-0.53,1.48-1.24h10.27v7.18h0.5
				v-7.18h7.25v-0.5h-7.25v-10.16h1.25v-2.97h3v-1.24h3v-0.5h-3v-1.24H301.05L301.05,261.36z M280.08,277.96h-3.02v-0.5h3.02
				c0.12-0.7,0.73-1.24,1.47-1.24c0.83,0,1.5,0.67,1.5,1.49c0,0.82-0.67,1.49-1.5,1.49C280.81,279.2,280.2,278.66,280.08,277.96z
				 M284.8,282.15v2.99h-0.5v-2.99c-0.71-0.12-1.25-0.73-1.25-1.47c0-0.82,0.68-1.49,1.5-1.49c0.83,0,1.5,0.66,1.5,1.49
				C286.05,281.42,285.51,282.03,284.8,282.15z"/>
		</g>
		<g class="st18">
			<path class="st15" d="M331.04,231.63h-1.25v0L331.04,231.63v-2.97h-1.25v-2.97h-0.5v2.97h-1.25v2.97h1.25v0h-1.25v1.24l0,0v-1.24
				h-3v1.24H314.8v-7.18h-0.5v7.18h-7.25v0.5h7.25v10.18c-0.71,0.12-1.25,0.73-1.25,1.47c0,0.82,0.67,1.49,1.5,1.49
				c0.82,0,1.49-0.67,1.49-1.49c0-0.74-0.54-1.35-1.24-1.47v-10.18h10.24v1.24h3v-1.24l0,0v1.24l0,0v2.97h1.25v10.16h-10.27
				c-0.12-0.7-0.73-1.24-1.48-1.24c-0.82,0-1.5,0.66-1.5,1.49c0,0.82,0.68,1.49,1.5,1.49c0.75,0,1.36-0.53,1.48-1.24h10.27v7.18h0.5
				v-7.18h7.25v-0.5h-7.25v-10.16h1.25v-2.97h3v-1.24h3v-0.5h-3v-1.24H331.04L331.04,231.63z M310.07,248.23h-3.02v-0.5h3.02
				c0.12-0.7,0.73-1.24,1.48-1.24c0.82,0,1.5,0.66,1.5,1.49c0,0.82-0.68,1.49-1.5,1.49C310.8,249.47,310.19,248.93,310.07,248.23z
				 M314.8,252.42v2.99h-0.5v-2.99c-0.71-0.12-1.25-0.73-1.25-1.47c0-0.82,0.67-1.49,1.5-1.49c0.82,0,1.49,0.67,1.49,1.49
				C316.04,251.69,315.5,252.3,314.8,252.42z"/>
		</g>
		<g class="st19">
			<path class="st15" d="M331.04,112.7h-1.25v0L331.04,112.7v-2.97h-1.25v-2.97h-0.5v2.97h-1.25v2.97h1.25v0h-1.25v1.24l0,0v-1.24
				h-3v1.24H314.8v-7.18h-0.5v7.18h-7.25v0.5h7.25v10.18c-0.71,0.12-1.25,0.73-1.25,1.47c0,0.82,0.67,1.49,1.5,1.49
				c0.82,0,1.49-0.67,1.49-1.49c0-0.74-0.54-1.35-1.24-1.47v-10.17h10.24v1.24h3v-1.24l0,0v1.24v0v2.97h1.25v10.16h-10.27
				c-0.12-0.7-0.73-1.24-1.48-1.24c-0.82,0-1.5,0.67-1.5,1.49c0,0.82,0.68,1.49,1.5,1.49c0.75,0,1.36-0.54,1.48-1.24h10.27v7.18h0.5
				v-7.18h7.25v-0.5h-7.25v-10.16h1.25v-2.97h3v-1.24h3v-0.5h-3v-1.24H331.04L331.04,112.7z M310.07,129.3h-3.02v-0.5h3.02
				c0.12-0.7,0.73-1.24,1.48-1.24c0.82,0,1.5,0.67,1.5,1.49c0,0.82-0.68,1.49-1.5,1.49C310.8,130.54,310.19,130,310.07,129.3z
				 M314.8,133.49v2.99h-0.5v-2.99c-0.71-0.12-1.25-0.73-1.25-1.47c0-0.82,0.67-1.49,1.5-1.49c0.82,0,1.49,0.66,1.49,1.49
				C316.04,132.76,315.5,133.37,314.8,133.49z"/>
		</g>
		<g class="st18">
			<path class="st15" d="M271.06,53.24h-1.25v0L271.06,53.24v-2.98h-1.25v-2.97h-0.5v2.97h-1.25v2.97h1.25v0h-1.25v1.24l0,0v-1.24
				h-3v1.24h-10.25v-7.18h-0.5v7.18h-7.25v0.5h7.25v10.18c-0.71,0.12-1.25,0.73-1.25,1.47c0,0.82,0.67,1.49,1.5,1.49
				c0.83,0,1.5-0.66,1.5-1.49c0-0.74-0.54-1.35-1.25-1.47V54.98h10.25v1.24h3v-1.24l0,0v1.24v0v2.97h1.25v10.16h-10.27
				c-0.12-0.7-0.74-1.24-1.48-1.24c-0.83,0-1.5,0.67-1.5,1.49s0.67,1.49,1.5,1.49c0.74,0,1.36-0.53,1.48-1.24h10.27v7.18h0.5v-7.18
				h7.24v-0.5h-7.24V59.18h1.25v-2.97h2.99v-1.24h3v-0.5h-3v-1.24H271.06L271.06,53.24z M250.08,69.84h-3.02v-0.5h3.02
				c0.12-0.7,0.74-1.24,1.48-1.24c0.83,0,1.5,0.67,1.5,1.49s-0.67,1.49-1.5,1.49C250.82,71.08,250.2,70.54,250.08,69.84z
				 M254.81,74.03v2.99h-0.5v-2.99c-0.71-0.12-1.25-0.73-1.25-1.47c0-0.82,0.67-1.49,1.5-1.49c0.83,0,1.5,0.67,1.5,1.49
				C256.06,73.3,255.52,73.91,254.81,74.03z"/>
		</g>
		<g class="st18">
			<path class="st15" d="M301.05,142.43h-1.25v0L301.05,142.43v-2.97h-1.25v-2.97h-0.5v2.97h-1.25v2.97h1.25v0h-1.25v1.24l0,0v-1.24
				h-3v1.24H284.8v-7.18h-0.5v7.18h-7.24v0.5h7.24v10.18c-0.71,0.12-1.25,0.73-1.25,1.47c0,0.82,0.68,1.49,1.5,1.49
				c0.83,0,1.5-0.66,1.5-1.49c0-0.74-0.54-1.35-1.25-1.47v-10.18h10.25v1.24h3v-1.24l0,0v1.24v0v2.97h1.25v10.16h-10.27
				c-0.12-0.7-0.74-1.24-1.48-1.24c-0.83,0-1.5,0.66-1.5,1.49c0,0.82,0.67,1.49,1.5,1.49c0.74,0,1.36-0.53,1.48-1.24h10.27v7.18h0.5
				v-7.18h7.25v-0.5h-7.25v-10.16h1.25v-2.97h3v-1.24h3v-0.5h-3v-1.24H301.05L301.05,142.43z M280.08,159.04h-3.02v-0.5h3.02
				c0.12-0.7,0.73-1.24,1.47-1.24c0.83,0,1.5,0.66,1.5,1.49c0,0.82-0.67,1.49-1.5,1.49C280.81,160.27,280.2,159.74,280.08,159.04z
				 M284.8,163.22v2.99h-0.5v-2.99c-0.71-0.12-1.25-0.73-1.25-1.47c0-0.82,0.68-1.49,1.5-1.49c0.83,0,1.5,0.67,1.5,1.49
				C286.05,162.49,285.51,163.11,284.8,163.22z"/>
		</g>
		<g class="st6">
			<path class="st15" d="M271.06,261.36h-1.25v0L271.06,261.36v-2.97h-1.25v-2.97h-0.5v2.97h-1.25v2.97h1.25v0h-1.25v1.24l0,0v-1.24
				h-3v1.24h-10.25v-7.18h-0.5v7.18h-7.25v0.5h7.25v10.18c-0.71,0.12-1.25,0.73-1.25,1.47c0,0.82,0.67,1.49,1.5,1.49
				c0.83,0,1.5-0.66,1.5-1.49c0-0.74-0.54-1.35-1.25-1.47V263.1h10.25v1.24h3v-1.24l0,0v1.24v0v2.97h1.25v10.16h-10.27
				c-0.12-0.7-0.74-1.24-1.48-1.24c-0.83,0-1.5,0.67-1.5,1.49c0,0.82,0.67,1.49,1.5,1.49c0.74,0,1.36-0.53,1.48-1.24h10.27v7.18h0.5
				v-7.18h7.24v-0.5h-7.24v-10.16h1.25v-2.97h2.99v-1.24h3v-0.5h-3v-1.24H271.06L271.06,261.36z M250.08,277.96h-3.02v-0.5h3.02
				c0.12-0.7,0.74-1.24,1.48-1.24c0.83,0,1.5,0.67,1.5,1.49c0,0.82-0.67,1.49-1.5,1.49C250.82,279.2,250.2,278.66,250.08,277.96z
				 M254.81,282.15v2.99h-0.5v-2.99c-0.71-0.12-1.25-0.73-1.25-1.47c0-0.82,0.67-1.49,1.5-1.49c0.83,0,1.5,0.66,1.5,1.49
				C256.06,281.42,255.52,282.03,254.81,282.15z"/>
		</g>
		<g class="st6">
			<path class="st15" d="M241.06,201.9h-1.25v0L241.06,201.9v-2.98h-1.25v-2.97h-0.5v2.97h-1.25v2.97h1.25v0h-1.25v1.24l0,0v-1.24
				h-3v1.24h-10.24v-7.18h-0.5v7.18h-7.25v0.5h7.25v10.18c-0.71,0.12-1.25,0.73-1.25,1.47c0,0.82,0.67,1.49,1.5,1.49
				c0.82,0,1.5-0.66,1.5-1.49c0-0.74-0.54-1.35-1.25-1.47v-10.18h10.24v1.24h3v-1.24l0,0v1.24v0v2.97h1.25V218h-10.27
				c-0.12-0.7-0.73-1.24-1.48-1.24c-0.82,0-1.49,0.67-1.49,1.49s0.67,1.49,1.49,1.49c0.75,0,1.36-0.54,1.48-1.24h10.27v7.18h0.5
				v-7.18h7.25V218h-7.25v-10.16h1.25v-2.97h3v-1.24h3v-0.5h-3v-1.24H241.06L241.06,201.9z M220.09,218.5h-3.02V218h3.02
				c0.12-0.7,0.73-1.24,1.48-1.24c0.82,0,1.5,0.67,1.5,1.49s-0.68,1.49-1.5,1.49C220.82,219.73,220.21,219.2,220.09,218.5z
				 M224.82,222.69v2.99h-0.5v-2.99c-0.71-0.12-1.25-0.73-1.25-1.47c0-0.82,0.67-1.49,1.5-1.49c0.82,0,1.5,0.67,1.5,1.49
				C226.07,221.96,225.53,222.57,224.82,222.69z"/>
		</g>
		<g class="st6">
			<path class="st15" d="M211.07,231.63h-1.25v0L211.07,231.63v-2.97h-1.25v-2.97h-0.5v2.97h-1.25v2.97h1.25v0h-1.25v1.24l0,0v-1.24
				h-3v1.24h-10.24v-7.18h-0.5v7.18h-7.25v0.5h7.25v10.18c-0.71,0.12-1.25,0.73-1.25,1.47c0,0.82,0.67,1.49,1.5,1.49
				c0.82,0,1.5-0.67,1.5-1.49c0-0.74-0.54-1.35-1.25-1.47v-10.18h10.24v1.24h3v-1.24l0,0v1.24l0,0v2.97h1.25v10.16h-10.27
				c-0.12-0.7-0.73-1.24-1.48-1.24c-0.82,0-1.49,0.66-1.49,1.49c0,0.82,0.67,1.49,1.49,1.49c0.75,0,1.36-0.53,1.48-1.24h10.27v7.18
				h0.5v-7.18h7.25v-0.5h-7.25v-10.16h1.25v-2.97h3v-1.24h3v-0.5h-3v-1.24H211.07L211.07,231.63z M190.1,248.23h-3.02v-0.5h3.02
				c0.12-0.7,0.73-1.24,1.48-1.24c0.82,0,1.5,0.66,1.5,1.49c0,0.82-0.68,1.49-1.5,1.49C190.83,249.47,190.22,248.93,190.1,248.23z
				 M194.83,252.42v2.99h-0.5v-2.99c-0.71-0.12-1.25-0.73-1.25-1.47c0-0.82,0.67-1.49,1.5-1.49c0.82,0,1.5,0.67,1.5,1.49
				C196.08,251.69,195.54,252.3,194.83,252.42z"/>
		</g>
		<g class="st19">
			<path class="st15" d="M391.03,112.7h-1.25v0L391.03,112.7v-2.97h-1.25v-2.97h-0.5v2.97h-1.25v2.97h1.25v0h-1.25v1.24l0,0v-1.24
				h-3v1.24h-10.25v-7.18h-0.5v7.18h-7.25v0.5h7.25v10.18c-0.71,0.12-1.25,0.73-1.25,1.47c0,0.82,0.67,1.49,1.5,1.49
				c0.83,0,1.5-0.67,1.5-1.49c0-0.74-0.54-1.35-1.25-1.47v-10.17h10.25v1.24h3v-1.24l0,0v1.24v0v2.97h1.25v10.16h-10.27
				c-0.12-0.7-0.74-1.24-1.48-1.24c-0.83,0-1.5,0.67-1.5,1.49c0,0.82,0.67,1.49,1.5,1.49c0.74,0,1.36-0.54,1.48-1.24h10.27v7.18h0.5
				v-7.18h7.25v-0.5h-7.25v-10.16h1.25v-2.97h3v-1.24h3v-0.5h-3v-1.24H391.03L391.03,112.7z M370.05,129.3h-3.02v-0.5h3.02
				c0.12-0.7,0.74-1.24,1.48-1.24c0.83,0,1.5,0.67,1.5,1.49c0,0.82-0.67,1.49-1.5,1.49C370.79,130.54,370.17,130,370.05,129.3z
				 M374.78,133.49v2.99h-0.5v-2.99c-0.71-0.12-1.25-0.73-1.25-1.47c0-0.82,0.67-1.49,1.5-1.49c0.83,0,1.5,0.66,1.5,1.49
				C376.03,132.76,375.49,133.37,374.78,133.49z"/>
		</g>
		<g class="st19">
			<path class="st15" d="M421.1,142.43h-1.25v0L421.1,142.43v-2.97h-1.25v-2.97h-0.5v2.97h-1.25v2.97h1.25v0h-1.25v1.24l0,0v-1.24
				h-3v1.24h-10.25v-7.18h-0.5v7.18h-7.25v0.5h7.25v10.18c-0.71,0.12-1.25,0.73-1.25,1.47c0,0.82,0.67,1.49,1.5,1.49
				s1.5-0.66,1.5-1.49c0-0.74-0.54-1.35-1.25-1.47v-10.18h10.25v1.24h3v-1.24l0,0v1.24v0v2.97h1.25v10.16h-10.27
				c-0.12-0.7-0.74-1.24-1.48-1.24c-0.83,0-1.5,0.66-1.5,1.49c0,0.82,0.67,1.49,1.5,1.49c0.74,0,1.36-0.54,1.48-1.24h10.27v7.18h0.5
				v-7.18h7.25v-0.5h-7.25v-10.16h1.25v-2.97h3v-1.24h3v-0.5h-3v-1.24H421.1L421.1,142.43z M400.12,159.04h-3.02v-0.5h3.02
				c0.12-0.7,0.74-1.24,1.48-1.24c0.83,0,1.5,0.66,1.5,1.49c0,0.82-0.67,1.49-1.5,1.49C400.86,160.27,400.24,159.74,400.12,159.04z
				 M404.85,163.23v2.99h-0.5v-2.99c-0.71-0.12-1.25-0.73-1.25-1.47c0-0.82,0.67-1.49,1.5-1.49s1.5,0.67,1.5,1.49
				C406.1,162.5,405.56,163.11,404.85,163.23z"/>
		</g>
		<g class="st19">
			<path class="st15" d="M361.03,53.24h-1.25v0L361.03,53.24v-2.98h-1.25v-2.97h-0.5v2.97h-1.25v2.97h1.25v0h-1.25v1.24l0,0v-1.24
				h-3v1.24h-10.24v-7.18h-0.5v7.18h-7.25v0.5h7.25v10.18c-0.71,0.12-1.25,0.73-1.25,1.47c0,0.82,0.67,1.49,1.5,1.49
				c0.83,0,1.5-0.66,1.5-1.49c0-0.74-0.54-1.35-1.25-1.47V54.98h10.24v1.24h3v-1.24l0,0v1.24v0v2.97h1.25v10.16h-10.27
				c-0.12-0.7-0.73-1.24-1.47-1.24c-0.83,0-1.5,0.67-1.5,1.49s0.67,1.49,1.5,1.49c0.74,0,1.35-0.53,1.47-1.24h10.27v7.18h0.5v-7.18
				h7.25v-0.5h-7.25V59.18h1.25v-2.97h3v-1.24h3v-0.5h-3v-1.24H361.03L361.03,53.24z M340.06,69.84h-3.02v-0.5h3.02
				c0.12-0.7,0.74-1.24,1.48-1.24c0.83,0,1.5,0.67,1.5,1.49s-0.67,1.49-1.5,1.49C340.8,71.08,340.18,70.54,340.06,69.84z
				 M344.79,74.03v2.99h-0.5v-2.99c-0.71-0.12-1.25-0.73-1.25-1.47c0-0.82,0.67-1.49,1.5-1.49c0.83,0,1.5,0.67,1.5,1.49
				C346.04,73.3,345.5,73.91,344.79,74.03z"/>
		</g>
		<g class="st19">
			<path class="st15" d="M361.04,172.16h-1.25v0L361.04,172.16v-2.97h-1.25v-2.97h-0.5v2.97h-1.25v2.97h1.25v0h-1.25v1.24l0,0v-1.24
				h-3v1.24h-10.25v-7.18h-0.5v7.18h-7.25v0.5h7.25v10.17c-0.71,0.12-1.25,0.73-1.25,1.47c0,0.82,0.67,1.49,1.5,1.49
				c0.83,0,1.5-0.67,1.5-1.49c0-0.74-0.54-1.35-1.25-1.47V173.9h10.25v1.24h3v-1.24l0,0v1.24l0,0v2.97h1.25v10.16h-10.27
				c-0.12-0.7-0.74-1.24-1.48-1.24c-0.83,0-1.5,0.67-1.5,1.49c0,0.82,0.67,1.49,1.5,1.49c0.74,0,1.36-0.53,1.48-1.24h10.27v7.18h0.5
				v-7.18h7.24v-0.5h-7.24v-10.16h1.25v-2.97h2.99v-1.24h3v-0.5h-3v-1.24H361.04L361.04,172.16z M340.06,188.77h-3.02v-0.5h3.02
				c0.12-0.7,0.74-1.24,1.48-1.24c0.83,0,1.5,0.67,1.5,1.49c0,0.82-0.67,1.49-1.5,1.49C340.8,190,340.18,189.47,340.06,188.77z
				 M344.79,192.96v2.99h-0.5v-2.99c-0.71-0.12-1.25-0.73-1.25-1.47c0-0.82,0.67-1.49,1.5-1.49c0.83,0,1.5,0.67,1.5,1.49
				C346.04,192.23,345.5,192.84,344.79,192.96z"/>
		</g>
		<path class="st20" d="M269.81,166.22v7.18h7.24v0.5h-7.24v10.9h3.49v3.46h3.75v0.5h-3.75v3.47h-3.49v3.71h-0.5v-3.71h-3.5v-3.47
			h-11v7.18h-0.5v-7.18h-7.25v-0.5h7.25v-10.9h-3.5v-3.47h-3.75v-0.5h3.75v-3.47h3.5v-3.72h0.5v3.72h3.49v3.47h11.01v-7.18H269.81z
			 M258.3,173.9h11.01v10.9h-2.8l-8.21-8.14V173.9z M257.59,177.37l8.22,8.14v2.76h-11v-10.9H257.59z"/>
		<path class="st21" d="M269.81,106.75v7.18h7.24v0.5h-7.24v10.9h3.49v3.47h3.75v0.5h-3.75v3.47h-3.49v3.71h-0.5v-3.71h-3.5v-3.47
			h-11v7.18h-0.5v-7.18h-7.25v-0.5h7.25v-10.9h-3.5v-3.47h-3.75v-0.5h3.75v-3.47h3.5v-3.72h0.5v3.72h3.49v3.47h11.01v-7.18H269.81z
			 M258.3,114.44h11.01v10.9h-2.8l-8.21-8.14V114.44z M257.59,117.9l8.22,8.14v2.76h-11v-10.9H257.59z"/>
		<path class="st22" d="M299.8,77.02v7.18h7.25v0.5h-7.25v10.9h3.5v3.47h3.75v0.5h-3.75v3.47h-3.5v3.72h-0.5v-3.72h-3.5v-3.47h-11
			v7.18h-0.5v-7.18h-7.24v-0.5h7.24v-10.9h-3.49v-3.47h-3.75v-0.5h3.75v-3.47h3.49v-3.72h0.5v3.72h3.5v3.47h11v-7.18H299.8z
			 M288.3,84.71h11v10.9h-2.79l-8.21-8.14V84.71z M287.6,88.17l8.2,8.14v2.76h-11v-10.9H287.6z"/>
		<g class="st19">
			<path class="st15" d="M149.83,195.95v7.18h7.25v0.5h-7.5h-0.25v-0.25v-7.43H149.83z M134.84,195.95v7.43v0.25h-0.25h-7.5v-0.5
				h7.25v-7.18H134.84z M157.08,218.5h-7.25v7.18h-0.5v-7.43V218h0.25h7.5V218.5z M134.59,218h0.25v0.25v7.43h-0.5v-7.18h-7.25V218
				H134.59z M133.84,210.07h1.5v1.49h-1.5V210.07z M145.84,199.67h-1.5v1.49h1.5V199.67z M144.34,220.48h1.5v1.49h-1.5V220.48z
				 M132.34,207.1h-1.5v1.49h1.5V207.1z M151.83,207.1h1.5v1.49h-1.5V207.1z M142.84,217.5h-1.5v1.49h1.5V217.5z M130.84,213.04h1.5
				v1.49h-1.5V213.04z M142.84,202.64h-1.5v1.49h1.5V202.64z M151.83,213.04h1.5v1.49h-1.5V213.04z M139.84,199.67h-1.5v1.49h1.5
				V199.67z M148.83,210.07h1.5v1.49h-1.5V210.07z M139.84,220.48h-1.5v1.49h1.5V220.48z M139.59,210.81c0,1.34,1.1,2.46,2.5,2.46
				c1.39,0,2.5-1.12,2.5-2.46s-1.11-2.46-2.5-2.46C140.69,208.35,139.59,209.47,139.59,210.81z M137.59,210.81
				c0,2.46,2.01,4.46,4.5,4.46c2.48,0,4.5-2,4.5-4.46s-2.02-4.46-4.5-4.46C139.6,206.35,137.59,208.35,137.59,210.81z"/>
		</g>
		<g class="st19">
			<path class="st15" d="M449.76,151.35v7.18h7.25v0.5h-7.5h-0.25v-0.25v-7.43H449.76z M434.77,151.35v7.43v0.25h-0.25h-7.5v-0.5
				h7.25v-7.18H434.77z M457.01,173.9h-7.25v7.18h-0.5v-7.43v-0.25h0.25h7.5V173.9z M434.52,173.4h0.25v0.25v7.43h-0.5v-7.18h-7.25
				v-0.5H434.52z M433.77,165.47h1.5v1.49h-1.5V165.47z M445.76,155.07h-1.5v1.49h1.5V155.07z M444.26,175.88h1.5v1.49h-1.5V175.88z
				 M432.27,162.5h-1.5v1.49h1.5V162.5z M451.76,162.5h1.5v1.49h-1.5V162.5z M442.76,172.91h-1.5v1.49h1.5V172.91z M430.77,168.45
				h1.5v1.49h-1.5V168.45z M442.76,158.04h-1.5v1.49h1.5V158.04z M451.76,168.45h1.5v1.49h-1.5V168.45z M439.77,155.07h-1.5v1.49
				h1.5V155.07z M448.76,165.47h1.5v1.49h-1.5V165.47z M439.77,175.88h-1.5v1.49h1.5V175.88z M439.52,166.22
				c0,1.34,1.1,2.46,2.49,2.46c1.4,0,2.5-1.12,2.5-2.46s-1.1-2.46-2.5-2.46C440.62,163.76,439.52,164.87,439.52,166.22z
				 M437.52,166.22c0,2.46,2.01,4.46,4.49,4.46c2.49,0,4.5-2,4.5-4.46s-2.01-4.46-4.5-4.46
				C439.53,161.76,437.52,163.75,437.52,166.22z"/>
		</g>
		<g class="st6">
			<path class="st7" d="M134.59,166.22v7.43h-7.5 M134.59,195.95v-7.43h-7.5 M149.58,166.22v7.43h7.5 M149.58,195.95v-7.43h7.5"/>
			<g>
				<defs>
					<rect id="SVGID_7_" x="132.34" y="171.42" width="19.5" height="19.33"/>
				</defs>
				<clipPath id="SVGID_8_">
					<use xlink:href="#SVGID_7_"  style="overflow:visible;"/>
				</clipPath>
				<g class="st23">
					<ellipse class="st9" cx="144.53" cy="173.84" rx="2.44" ry="2.42"/>
					<ellipse class="st9" cx="134.78" cy="178.67" rx="2.44" ry="2.42"/>
					<ellipse class="st9" cx="134.78" cy="188.33" rx="2.44" ry="2.42"/>
					<ellipse class="st9" cx="139.65" cy="188.33" rx="2.44" ry="2.42"/>
					<ellipse class="st9" cx="149.4" cy="188.33" rx="2.44" ry="2.42"/>
					<ellipse class="st9" cx="144.53" cy="183.5" rx="2.44" ry="2.42"/>
					<ellipse class="st9" cx="139.65" cy="183.5" rx="2.44" ry="2.42"/>
					<ellipse class="st9" cx="134.78" cy="183.5" rx="2.44" ry="2.42"/>
					<ellipse class="st9" cx="139.65" cy="178.67" rx="2.44" ry="2.42"/>
					<ellipse class="st9" cx="144.53" cy="178.67" rx="2.44" ry="2.42"/>
					<path class="st9" d="M142.09,173.84c0,1.34-1.09,2.42-2.44,2.42h-4.87c-1.35,0-2.44-1.08-2.44-2.42c0-1.33,1.09-2.41,2.44-2.41
						h4.87C141,171.42,142.09,172.5,142.09,173.84z"/>
					<path class="st9" d="M149.4,181.08c-1.35,0-2.44-1.08-2.44-2.41v-4.83c0-1.33,1.09-2.41,2.44-2.41c1.35,0,2.44,1.08,2.44,2.41
						v4.83C151.84,180,150.75,181.08,149.4,181.08z"/>
				</g>
			</g>
		</g>
		<g class="st19">
			<path class="st15" d="M149.83,136.49v7.18h7.25v0.5h-7.5h-0.25v-0.25v-7.43H149.83z M134.34,141.43h-1.25h-1v1v1.24h-5v0.5h5
				v1.24v1h1h1.4c0.63,1.9,1.97,3.49,3.71,4.45H136c-0.21-0.58-0.76-0.99-1.41-0.99c-0.83,0-1.5,0.67-1.5,1.49s0.67,1.49,1.5,1.49
				c0.65,0,1.2-0.41,1.41-0.99h3.59v0.99v1h1h3h1v-1v-0.53c1.85,0.7,3.32,2.16,4.03,3.99h-0.53h-1v1v2.97v1h1h1.24v4.95h0.5v-4.95
				h1.25h1v-1v-1.24h5v-0.5h-5v-1.24v-1h-1h-1.4c-0.63-1.9-1.97-3.49-3.7-4.45h2.19c0.21,0.58,0.76,0.99,1.41,0.99
				c0.83,0,1.5-0.67,1.5-1.49s-0.67-1.49-1.5-1.49c-0.65,0-1.2,0.41-1.41,0.99h-3.58v-0.99v-1h-1h-3h-1v1v0.53
				c-1.85-0.7-3.33-2.16-4.04-3.99h0.54h1v-1v-2.97v-1h-1h-1.25v-4.95h-0.5V141.43z M134.59,158.54h0.25v0.25v7.43h-0.5v-7.18h-7.25
				v-0.5H134.59z M150.08,159.27v-0.97h-0.99v0.97H150.08z M142.59,151.84h-1v-0.97h1V151.84z M135.09,144.41v-0.97h-1v0.97H135.09z
				"/>
		</g>
		<path class="st15" d="M299.8,166.22v7.18h7.25v0.5h-7.5h-0.25v-0.25v-7.43H299.8z M284.8,166.22v7.43v0.25h-0.25h-7.49v-0.5h7.24
			v-7.18H284.8z M307.05,188.77h-7.25v7.18h-0.5v-7.43v-0.25h0.25h7.5V188.77z M284.55,188.27h0.25v0.25v7.43h-0.5v-7.18h-7.24v-0.5
			H284.55z M283.8,180.34h1.5v1.49h-1.5V180.34z M295.8,169.93h-1.5v1.49h1.5V169.93z M294.3,190.75h1.5v1.49h-1.5V190.75z
			 M282.3,177.37h-1.5v1.49h1.5V177.37z M301.8,177.37h1.5v1.49h-1.5V177.37z M292.8,187.77h-1.5v1.49h1.5V187.77z M280.8,183.31
			h1.5v1.49h-1.5V183.31z M292.8,172.91h-1.5v1.49h1.5V172.91z M301.8,183.31h1.5v1.49h-1.5V183.31z M289.8,169.93h-1.5v1.49h1.5
			V169.93z M298.8,180.34h1.5v1.49h-1.5V180.34z M289.8,190.75h-1.5v1.49h1.5V190.75z M289.55,181.08c0,1.34,1.1,2.46,2.5,2.46
			c1.4,0,2.5-1.12,2.5-2.46c0-1.34-1.1-2.46-2.5-2.46C290.65,178.62,289.55,179.74,289.55,181.08z M287.55,181.08
			c0,2.46,2.02,4.46,4.5,4.46c2.49,0,4.5-2,4.5-4.46s-2.01-4.46-4.5-4.46C289.57,176.62,287.55,178.62,287.55,181.08z"/>
		<path class="st15" d="M389.78,225.68v7.18h7.25v0.5h-7.5h-0.25v-0.25v-7.43H389.78z M374.78,225.68v7.43v0.25h-0.25h-7.5v-0.5
			h7.25v-7.18H374.78z M397.03,248.23h-7.25v7.18h-0.5v-7.43v-0.25h0.25h7.5V248.23z M374.53,247.73h0.25v0.25v7.43h-0.5v-7.18
			h-7.25v-0.5H374.53z M373.78,239.8h1.5v1.49h-1.5V239.8z M385.78,229.4h-1.5v1.49h1.5V229.4z M384.28,250.21h1.5v1.49h-1.5V250.21
			z M372.28,236.83h-1.5v1.49h1.5V236.83z M391.78,236.83h1.5v1.49h-1.5V236.83z M382.78,247.23h-1.5v1.49h1.5V247.23z
			 M370.78,242.78h1.5v1.49h-1.5V242.78z M382.78,232.37h-1.5v1.49h1.5V232.37z M391.78,242.78h1.5v1.49h-1.5V242.78z M379.78,229.4
			h-1.5v1.49h1.5V229.4z M388.78,239.8h1.5v1.49h-1.5V239.8z M379.78,250.21h-1.5v1.49h1.5V250.21z M379.53,240.54
			c0,1.34,1.1,2.46,2.5,2.46c1.4,0,2.5-1.12,2.5-2.46c0-1.34-1.1-2.46-2.5-2.46C380.63,238.09,379.53,239.2,379.53,240.54z
			 M377.53,240.54c0,2.46,2.01,4.46,4.5,4.46c2.48,0,4.5-2,4.5-4.46s-2.02-4.46-4.5-4.46C379.54,236.09,377.53,238.08,377.53,240.54
			z"/>
		<path class="st15" d="M359.79,77.02v7.18h7.24v0.5h-7.49h-0.25v-0.25v-7.43H359.79z M344.79,77.02v7.43v0.25h-0.25h-7.5v-0.5h7.25
			v-7.18H344.79z M367.03,99.57h-7.24v7.18h-0.5v-7.43v-0.25h0.25h7.49V99.57z M344.54,99.07h0.25v0.25v7.43h-0.5v-7.18h-7.25v-0.5
			H344.54z M343.79,91.15h1.5v1.49h-1.5V91.15z M355.79,80.74h-1.5v1.49h1.5V80.74z M354.29,101.55h1.5v1.49h-1.5V101.55z
			 M342.29,88.17h-1.5v1.49h1.5V88.17z M361.79,88.17h1.49v1.49h-1.49V88.17z M352.79,98.58h-1.5v1.49h1.5V98.58z M340.79,94.12h1.5
			v1.49h-1.5V94.12z M352.79,83.71h-1.5v1.49h1.5V83.71z M361.79,94.12h1.49v1.49h-1.49V94.12z M349.79,80.74h-1.5v1.49h1.5V80.74z
			 M358.79,91.15h1.5v1.49h-1.5V91.15z M349.79,101.55h-1.5v1.49h1.5V101.55z M349.54,91.89c0,1.34,1.1,2.46,2.5,2.46
			c1.39,0,2.5-1.12,2.5-2.46s-1.11-2.46-2.5-2.46C350.64,89.43,349.54,90.55,349.54,91.89z M347.54,91.89c0,2.46,2.01,4.46,4.5,4.46
			c2.48,0,4.5-2,4.5-4.46s-2.02-4.46-4.5-4.46C349.55,87.43,347.54,89.43,347.54,91.89z"/>
		<path class="st15" d="M359.79,77.02v7.18h7.24v0.5h-7.49h-0.25v-0.25v-7.43H359.79z M344.79,77.02v7.43v0.25h-0.25h-7.5v-0.5h7.25
			v-7.18H344.79z M367.03,99.57h-7.24v7.18h-0.5v-7.43v-0.25h0.25h7.49V99.57z M344.54,99.07h0.25v0.25v7.43h-0.5v-7.18h-7.25v-0.5
			H344.54z M343.79,91.15h1.5v1.49h-1.5V91.15z M355.79,80.74h-1.5v1.49h1.5V80.74z M354.29,101.55h1.5v1.49h-1.5V101.55z
			 M342.29,88.17h-1.5v1.49h1.5V88.17z M361.79,88.17h1.49v1.49h-1.49V88.17z M352.79,98.58h-1.5v1.49h1.5V98.58z M340.79,94.12h1.5
			v1.49h-1.5V94.12z M352.79,83.71h-1.5v1.49h1.5V83.71z M361.79,94.12h1.49v1.49h-1.49V94.12z M349.79,80.74h-1.5v1.49h1.5V80.74z
			 M358.79,91.15h1.5v1.49h-1.5V91.15z M349.79,101.55h-1.5v1.49h1.5V101.55z M349.54,91.89c0,1.34,1.1,2.46,2.5,2.46
			c1.39,0,2.5-1.12,2.5-2.46s-1.11-2.46-2.5-2.46C350.64,89.43,349.54,90.55,349.54,91.89z M347.54,91.89c0,2.46,2.01,4.46,4.5,4.46
			c2.48,0,4.5-2,4.5-4.46s-2.02-4.46-4.5-4.46C349.55,87.43,347.54,89.43,347.54,91.89z"/>
		<path class="st15" d="M269.81,77.02v7.18h7.24v0.5h-7.49h-0.25v-0.25v-7.43H269.81z M254.81,77.02v7.43v0.25h-0.25h-7.5v-0.5h7.25
			v-7.18H254.81z M277.05,99.57h-7.24v7.18h-0.5v-7.43v-0.25h0.25h7.49V99.57z M254.56,99.07h0.25v0.25v7.43h-0.5v-7.18h-7.25v-0.5
			H254.56z M253.81,91.15h1.5v1.49h-1.5V91.15z M265.81,80.74h-1.5v1.49h1.5V80.74z M264.31,101.55h1.5v1.49h-1.5V101.55z
			 M252.31,88.17h-1.5v1.49h1.5V88.17z M271.81,88.17h1.5v1.49h-1.5V88.17z M262.81,98.58h-1.5v1.49h1.5V98.58z M250.81,94.12h1.5
			v1.49h-1.5V94.12z M262.81,83.71h-1.5v1.49h1.5V83.71z M271.81,94.12h1.5v1.49h-1.5V94.12z M259.81,80.74h-1.5v1.49h1.5V80.74z
			 M268.81,91.15h1.5v1.49h-1.5V91.15z M259.81,101.55h-1.5v1.49h1.5V101.55z M259.56,91.89c0,1.34,1.1,2.46,2.5,2.46
			c1.39,0,2.5-1.12,2.5-2.46s-1.11-2.46-2.5-2.46C260.66,89.43,259.56,90.55,259.56,91.89z M257.56,91.89c0,2.46,2.01,4.46,4.5,4.46
			c2.48,0,4.5-2,4.5-4.46s-2.02-4.46-4.5-4.46C259.57,87.43,257.56,89.43,257.56,91.89z"/>
		<g class="st14">
			<path class="st15" d="M269.81,225.68v7.18h7.24v0.5h-7.49h-0.25v-0.25v-7.43H269.81z M254.81,225.68v7.43v0.25h-0.25h-7.5v-0.5
				h7.25v-7.18H254.81z M277.05,248.23h-7.24v7.18h-0.5v-7.43v-0.25h0.25h7.49V248.23z M254.56,247.73h0.25v0.25v7.43h-0.5v-7.18
				h-7.25v-0.5H254.56z M253.81,239.8h1.5v1.49h-1.5V239.8z M265.81,229.4h-1.5v1.49h1.5V229.4z M264.31,250.21h1.5v1.49h-1.5
				V250.21z M252.31,236.83h-1.5v1.49h1.5V236.83z M271.81,236.83h1.5v1.49h-1.5V236.83z M262.81,247.23h-1.5v1.49h1.5V247.23z
				 M250.81,242.78h1.5v1.49h-1.5V242.78z M262.81,232.37h-1.5v1.49h1.5V232.37z M271.81,242.78h1.5v1.49h-1.5V242.78z
				 M259.81,229.4h-1.5v1.49h1.5V229.4z M268.81,239.8h1.5v1.49h-1.5V239.8z M259.81,250.21h-1.5v1.49h1.5V250.21z M259.56,240.54
				c0,1.34,1.1,2.46,2.5,2.46c1.39,0,2.5-1.12,2.5-2.46c0-1.34-1.11-2.46-2.5-2.46C260.66,238.09,259.56,239.2,259.56,240.54z
				 M257.56,240.54c0,2.46,2.01,4.46,4.5,4.46c2.48,0,4.5-2,4.5-4.46s-2.02-4.46-4.5-4.46
				C259.57,236.09,257.56,238.08,257.56,240.54z"/>
		</g>
		<path class="st21" d="M329.79,255.41v7.18h7.25v0.5h-7.25v10.9h3.5v3.47h3.75v0.5h-3.75v3.46h-3.5v3.72h-0.5v-3.72h-3.49v-3.46
			h-11v7.18h-0.5v-7.18h-7.25v-0.5h7.25v-10.9h-3.51v-3.46h-3.74v-0.5h3.74v-3.47h3.51v-3.71h0.5v3.71h3.49v3.47h11v-7.18H329.79z
			 M318.29,263.1h11v10.9h-2.79l-8.21-8.14V263.1z M317.58,266.56l8.22,8.14v2.76h-11v-10.9H317.58z"/>
		<path class="st20" d="M419.77,166.22v7.18h7.25v0.5h-7.25v10.9h3.5v3.46h3.75v0.5h-3.75v3.47h-3.5v3.72h-0.5v-3.72h-3.5v-3.47h-11
			v7.18h-0.5v-7.18h-7.24v-0.5h7.24v-10.9h-3.49v-3.47h-3.75v-0.5h3.75v-3.47h3.49v-3.72h0.5v3.72h3.5v3.47h11v-7.18H419.77z
			 M408.27,173.9h11v10.9h-2.79l-8.21-8.14V173.9z M407.57,177.37l8.2,8.14v2.76h-11v-10.9H407.57z"/>
		<path class="st20" d="M449.84,181.09v7.18h7.25v0.5h-7.25v10.9h3.5v3.47h3.75v0.5h-3.75v3.47h-3.5v3.72h-0.5v-3.72h-3.49v-3.47
			h-11.01v7.18h-0.5v-7.18h-7.24v-0.5h7.24v-10.9h-3.49v-3.47h-3.75v-0.5h3.75v-3.47h3.49v-3.72h0.5v3.72h3.5v3.47h11v-7.18H449.84z
			 M438.34,188.77h11v10.9h-2.79l-8.21-8.14V188.77z M437.64,192.24l8.21,8.14v2.76h-11.01v-10.9H437.64z"/>
		<path class="st20" d="M419.77,225.68v7.18h7.25v0.5h-7.25v10.9h3.5v3.46h3.75v0.5h-3.75v3.47h-3.5v3.72h-0.5v-3.72h-3.5v-3.47h-11
			v7.18h-0.5v-7.18h-7.24v-0.5h7.24v-10.9h-3.49v-3.47h-3.75v-0.5h3.75v-3.47h3.49v-3.72h0.5v3.72h3.5v3.47h11v-7.18H419.77z
			 M408.27,233.36h11v10.9h-2.79l-8.21-8.14V233.36z M407.56,236.83l8.21,8.14v2.76h-11v-10.9H407.56z"/>
		<path class="st20" d="M389.78,136.49v7.18h7.25v0.5h-7.25v10.9h3.5v3.47h3.75v0.5h-3.75v3.47h-3.5v3.72h-0.5v-3.72h-3.5v-3.47h-11
			v7.18h-0.5v-7.18h-7.25v-0.5h7.25v-10.9h-3.5v-3.46h-3.75v-0.5h3.75v-3.47h3.5v-3.71h0.5v3.71h3.5v3.47h11v-7.18H389.78z
			 M378.28,144.17h11v10.9h-2.79l-8.21-8.14V144.17z M377.57,147.63l8.21,8.14v2.76h-11v-10.9H377.57z"/>
		<path class="st24" d="M179.83,195.95v7.18h7.25v0.5h-7.25v10.9h3.5V218h3.75v0.5h-3.75v3.47h-3.5v3.71h-0.5v-3.71h-3.5v-3.47h-11
			v7.18h-0.5v-7.18h-7.25V218h7.25v-10.9h-3.5v-3.47h-3.75v-0.5h3.75v-3.47h3.5v-3.72h0.5v3.72h3.5v3.47h11v-7.18H179.83z
			 M168.33,203.63h11v10.9h-2.79l-8.21-8.14V203.63z M167.62,207.1l8.21,8.14V218h-11v-10.9H167.62z"/>
		<path class="st24" d="M179.83,165.77v7.18h7.25v0.5h-7.25v10.9h3.5v3.47h3.75v0.5h-3.75v3.46h-3.5v3.72h-0.5v-3.72h-3.5v-3.46h-11
			v7.18h-0.5v-7.18h-7.25v-0.5h7.25v-10.9h-3.5v-3.47h-3.75v-0.5h3.75v-3.47h3.5v-3.72h0.5v3.72h3.5v3.47h11v-7.18H179.83z
			 M168.33,173.46h11v10.9h-2.79l-8.21-8.14V173.46z M167.62,176.92l8.21,8.14v2.76h-11v-10.9H167.62z"/>
		<g class="st5">
			<path class="st7" d="M224.57,166.22v7.43h-7.5 M224.57,195.95v-7.43h-7.5 M239.56,166.22v7.43h7.5 M239.56,195.95v-7.43h7.5"/>
			<g>
				<defs>
					<rect id="SVGID_9_" x="222.31" y="171.42" width="19.5" height="19.33"/>
				</defs>
				<clipPath id="SVGID_10_">
					<use xlink:href="#SVGID_9_"  style="overflow:visible;"/>
				</clipPath>
				<g class="st25">
					<ellipse class="st9" cx="234.5" cy="173.84" rx="2.44" ry="2.42"/>
					<ellipse class="st9" cx="224.76" cy="178.67" rx="2.44" ry="2.42"/>
					<ellipse class="st9" cx="224.76" cy="188.33" rx="2.44" ry="2.42"/>
					<ellipse class="st9" cx="229.63" cy="188.33" rx="2.44" ry="2.42"/>
					<ellipse class="st9" cx="239.38" cy="188.33" rx="2.44" ry="2.42"/>
					<ellipse class="st9" cx="234.5" cy="183.5" rx="2.44" ry="2.42"/>
					<ellipse class="st9" cx="229.63" cy="183.5" rx="2.44" ry="2.42"/>
					<ellipse class="st9" cx="224.76" cy="183.5" rx="2.44" ry="2.42"/>
					<ellipse class="st9" cx="229.63" cy="178.67" rx="2.44" ry="2.42"/>
					<ellipse class="st9" cx="234.5" cy="178.67" rx="2.44" ry="2.42"/>
					<path class="st9" d="M232.07,173.84c0,1.34-1.1,2.42-2.44,2.42h-4.87c-1.35,0-2.44-1.08-2.44-2.42c0-1.33,1.09-2.41,2.44-2.41
						h4.87C230.97,171.42,232.07,172.5,232.07,173.84z"/>
					<path class="st9" d="M239.38,181.08c-1.35,0-2.44-1.08-2.44-2.41v-4.83c0-1.33,1.09-2.41,2.44-2.41c1.34,0,2.43,1.08,2.43,2.41
						v4.83C241.81,180,240.72,181.08,239.38,181.08z"/>
				</g>
			</g>
		</g>
		<g class="st5">
			<path class="st7" d="M224.57,225.68v7.43h-7.5 M224.57,255.41v-7.43h-7.5 M239.56,225.68v7.43h7.5 M239.56,255.41v-7.43h7.5"/>
			<g>
				<defs>
					<rect id="SVGID_11_" x="222.31" y="230.88" width="19.5" height="19.33"/>
				</defs>
				<clipPath id="SVGID_12_">
					<use xlink:href="#SVGID_11_"  style="overflow:visible;"/>
				</clipPath>
				<g class="st26">
					<ellipse class="st9" cx="234.5" cy="233.3" rx="2.44" ry="2.42"/>
					<ellipse class="st9" cx="224.76" cy="238.13" rx="2.44" ry="2.42"/>
					<ellipse class="st9" cx="224.76" cy="247.79" rx="2.44" ry="2.42"/>
					<ellipse class="st9" cx="229.63" cy="247.79" rx="2.44" ry="2.42"/>
					<ellipse class="st9" cx="239.38" cy="247.79" rx="2.44" ry="2.42"/>
					<ellipse class="st9" cx="234.5" cy="242.96" rx="2.44" ry="2.42"/>
					<ellipse class="st9" cx="229.63" cy="242.96" rx="2.44" ry="2.42"/>
					<ellipse class="st9" cx="224.76" cy="242.96" rx="2.44" ry="2.42"/>
					<ellipse class="st9" cx="229.63" cy="238.13" rx="2.44" ry="2.42"/>
					<ellipse class="st9" cx="234.5" cy="238.13" rx="2.44" ry="2.42"/>
					<path class="st9" d="M232.07,233.3c0,1.34-1.1,2.42-2.44,2.42h-4.87c-1.35,0-2.44-1.08-2.44-2.42c0-1.33,1.09-2.41,2.44-2.41
						h4.87C230.97,230.88,232.07,231.96,232.07,233.3z"/>
					<path class="st9" d="M239.38,240.55c-1.35,0-2.44-1.08-2.44-2.41v-4.83c0-1.33,1.09-2.41,2.44-2.41c1.34,0,2.43,1.08,2.43,2.41
						v4.83C241.81,239.46,240.72,240.55,239.38,240.55z"/>
				</g>
			</g>
		</g>
		<g class="st17">
			<path class="st7" d="M194.58,195.95v7.43h-7.5 M194.58,225.68v-7.43h-7.5 M209.57,195.95v7.43h7.5 M209.57,225.68v-7.43h7.5"/>
			<path class="st12" d="M194.28,203.08l15.59,15.46 M194.28,203.08v7.73 M194.28,203.08h7.8 M209.87,218.54v-7.73 M209.87,218.54
				h-7.79 M194.28,218.54l15.59-15.46 M194.28,218.54v-7.73 M194.28,218.54h7.8 M209.87,203.08v7.73 M209.87,203.08h-7.79
				 M209.87,210.81h-15.59 M202.08,218.54v-15.46"/>
			<rect x="192.33" y="216.61" class="st9" width="3.9" height="3.87"/>
			<rect x="200.13" y="216.61" class="st9" width="3.9" height="3.87"/>
			<rect x="207.92" y="216.61" class="st9" width="3.9" height="3.87"/>
			<rect x="192.33" y="208.88" class="st9" width="3.9" height="3.87"/>
			<rect x="200.13" y="208.88" class="st9" width="3.9" height="3.87"/>
			<rect x="207.92" y="208.88" class="st9" width="3.9" height="3.87"/>
			<rect x="192.33" y="201.15" class="st9" width="3.9" height="3.87"/>
			<rect x="200.13" y="201.15" class="st9" width="3.9" height="3.87"/>
			<rect x="207.92" y="201.15" class="st9" width="3.9" height="3.87"/>
		</g>
		<g class="st5">
			<path class="st27" d="M239.57,314.88v7.44h-7.5 M239.57,344.62v-7.44h-7.5 M254.57,314.88v7.44h7.49 M254.57,344.62v-7.44h7.49"
				/>
			<path class="st12" d="M239.27,322.02l15.6,15.46 M239.27,322.02v7.73 M239.27,322.02h7.8 M254.87,337.48v-7.73 M254.87,337.48
				h-7.8 M239.27,337.48l15.6-15.46 M239.27,337.48v-7.73 M239.27,337.48h7.8 M254.87,322.02v7.73 M254.87,322.02h-7.8
				 M254.87,329.75h-15.6 M247.07,337.48v-15.46"/>
			<rect x="237.32" y="335.55" class="st9" width="3.9" height="3.87"/>
			<rect x="245.12" y="335.55" class="st9" width="3.9" height="3.87"/>
			<rect x="252.92" y="335.55" class="st9" width="3.9" height="3.87"/>
			<rect x="237.32" y="327.82" class="st9" width="3.9" height="3.87"/>
			<rect x="245.12" y="327.82" class="st9" width="3.9" height="3.87"/>
			<rect x="252.92" y="327.82" class="st9" width="3.9" height="3.87"/>
			<rect x="237.32" y="320.09" class="st9" width="3.9" height="3.87"/>
			<rect x="245.12" y="320.09" class="st9" width="3.9" height="3.87"/>
			<rect x="252.92" y="320.09" class="st9" width="3.9" height="3.87"/>
		</g>
		<path class="st28" d="M329.55,285.15v7.43h-7.5 M329.55,314.88v-7.43h-7.5 M344.54,285.15v7.43h7.5 M344.54,314.88v-7.43h7.5"/>
		<ellipse class="st29" cx="334.61" cy="294.22" rx="2.44" ry="2.42"/>
		<g class="st5">
			<path class="st7" d="M359.54,300.02v7.43h-7.5 M359.54,329.75v-7.43h-7.5 M374.53,300.02v7.43h7.5 M374.53,329.75v-7.43h7.5"/>
			<path class="st15" d="M365.02,304.9H361v3.99h4.02V304.9z M365.02,312.89v-4h4.03v-3.99h4.03v3.99h4.03v4h-4.03v3.99h4.03v3.99
				h-4.03v4h-4.03v-4h-4.03v4H361v-4h-4.03v-3.99H361v-3.99h-4.03v-4H361v4H365.02z M365.02,316.88v-3.99h4.03v-4h4.03v4h-4.03v3.99
				h4.03v3.99h-4.03v-3.99H365.02z M365.02,316.88H361v3.99h4.02V316.88z"/>
		</g>
		<path class="st11" d="M226.08,380.29h-1.25l0,0H226.08v-2.97h-1.25v-2.97h-0.5v2.97h-1.25v2.97h1.25l0,0h-1.25v1.24l0,0v-1.24h-3
			v1.24h-10.25v-7.18h-0.5v7.18h-7.25v0.5h7.25v10.18c-0.71,0.11-1.25,0.72-1.25,1.46c0,0.82,0.67,1.49,1.5,1.49s1.5-0.67,1.5-1.49
			c0-0.74-0.54-1.35-1.25-1.47v-10.17h10.25v1.24h3v-1.24l0,0v1.24h1.25l0,0h-1.25v2.97h1.25v10.15h-10.27
			c-0.12-0.7-0.74-1.23-1.48-1.23c-0.83,0-1.5,0.66-1.5,1.48c0,0.83,0.67,1.49,1.5,1.49c0.74,0,1.36-0.53,1.48-1.24h10.27v7.19h0.5
			v-7.19h7.24v-0.5h-7.24v-10.15h1.25v-2.97h-1.25l0,0h1.25l0,0h2.99v-1.24h3v-0.5h-3v-1.24H226.08L226.08,380.29z M205.1,396.89
			h-3.02v-0.5h3.02c0.12-0.7,0.74-1.23,1.48-1.23c0.83,0,1.5,0.66,1.5,1.48c0,0.83-0.67,1.49-1.5,1.49
			C205.84,398.13,205.22,397.6,205.1,396.89z M209.83,401.08v3h-0.5v-3c-0.71-0.12-1.25-0.73-1.25-1.46c0-0.82,0.67-1.49,1.5-1.49
			s1.5,0.67,1.5,1.49C211.08,400.35,210.54,400.96,209.83,401.08z"/>
		<path class="st11" d="M256.06,413L256.06,413h3v-1.24h3.01v-0.5h-3.01v-1.24h-3l0,0h-1.24l0,0h1.24v-2.97h-1.24v-2.97h-0.5v2.97
			h-1.26v2.97h1.26l0,0h-1.26v1.24l0,0v-1.24h-3v1.24h-10.24v-7.18h-0.5v7.18h-7.25v0.5h7.25v10.18c-0.71,0.11-1.25,0.73-1.25,1.46
			c0,0.82,0.67,1.49,1.5,1.49c0.83,0,1.5-0.67,1.5-1.49c0-0.73-0.54-1.34-1.25-1.46v-10.18h10.24V413h3v-1.24l0,0V413h1.26l0,0
			h-1.26v2.97h1.26v10.16h-10.28c-0.12-0.71-0.73-1.24-1.47-1.24c-0.83,0-1.5,0.67-1.5,1.49s0.67,1.48,1.5,1.48
			c0.74,0,1.35-0.53,1.47-1.23h10.28v7.18h0.5v-7.18h7.25v-0.5h-7.25v-10.16h1.24V413h-1.24l0,0H256.06z M235.09,426.63h-3.02v-0.5
			h3.02c0.12-0.71,0.73-1.24,1.48-1.24c0.82,0,1.5,0.67,1.5,1.49s-0.68,1.48-1.5,1.48C235.82,427.86,235.21,427.33,235.09,426.63z
			 M239.82,430.82v2.99h-0.5v-2.99c-0.71-0.12-1.25-0.73-1.25-1.47c0-0.82,0.67-1.49,1.5-1.49c0.83,0,1.5,0.67,1.5,1.49
			C241.07,430.09,240.53,430.7,239.82,430.82z"/>
		<path class="st11" d="M256.06,294.07L256.06,294.07h3v-1.24h3v-0.5h-3v-1.23h-3l0,0h-1.24l0,0h1.24v-2.98h-1.24v-2.97h-0.5v2.97
			h-1.26v2.98h1.26l0,0h-1.26v1.23l0,0v-1.23h-3v1.23h-10.24v-7.18h-0.5v7.18h-7.25v0.5h7.25v10.18c-0.71,0.12-1.25,0.73-1.25,1.47
			c0,0.82,0.67,1.48,1.5,1.48c0.83,0,1.5-0.66,1.5-1.48c0-0.74-0.54-1.35-1.25-1.47v-10.18h10.24v1.24h3v-1.24l0,0v1.24h1.26l0,0
			h-1.26v2.97h1.26v10.16h-10.28c-0.12-0.7-0.73-1.24-1.47-1.24c-0.83,0-1.5,0.67-1.5,1.49s0.67,1.49,1.5,1.49
			c0.74,0,1.35-0.54,1.47-1.24h10.28v7.18h0.5v-7.18h7.24v-0.5h-7.24v-10.16h1.24V294.07h-1.24l0,0H256.06z M235.09,307.7h-3.02
			v-0.5h3.02c0.12-0.7,0.73-1.24,1.48-1.24c0.82,0,1.5,0.67,1.5,1.49s-0.68,1.49-1.5,1.49C235.82,308.94,235.21,308.4,235.09,307.7z
			 M239.82,311.89v2.99h-0.5v-2.99c-0.71-0.12-1.25-0.73-1.25-1.47c0-0.82,0.67-1.48,1.5-1.48c0.83,0,1.5,0.66,1.5,1.48
			C241.07,311.16,240.53,311.77,239.82,311.89z"/>
		<path class="st11" d="M226.08,320.83h-1.25l0,0H226.08v-2.97h-1.25v-2.98h-0.5v2.98h-1.25v2.97h1.25l0,0h-1.25v1.24l0,0v-1.24h-3
			v1.24h-10.25v-7.19h-0.5v7.19h-7.25v0.5h7.25v10.17c-0.71,0.12-1.25,0.73-1.25,1.47c0,0.82,0.67,1.49,1.5,1.49s1.5-0.67,1.5-1.49
			c0-0.74-0.54-1.35-1.25-1.47v-10.17h10.25v1.23h3v-1.23l0,0v1.23h1.25l0,0h-1.25v2.98h1.25v10.15h-10.27
			c-0.12-0.7-0.74-1.23-1.48-1.23c-0.83,0-1.5,0.66-1.5,1.48c0,0.82,0.67,1.49,1.5,1.49c0.74,0,1.36-0.54,1.48-1.24h10.27v7.19h0.5
			v-7.19h7.24v-0.5h-7.24v-10.15h1.25v-2.98h-1.25l0,0h1.25l0,0h2.99v-1.23h3v-0.5h-3v-1.24H226.08L226.08,320.83z M205.1,337.43
			h-3.02v-0.5h3.02c0.12-0.7,0.74-1.23,1.48-1.23c0.83,0,1.5,0.66,1.5,1.48c0,0.82-0.67,1.49-1.5,1.49
			C205.84,338.67,205.22,338.13,205.1,337.43z M209.83,341.62v3h-0.5v-3c-0.71-0.12-1.25-0.73-1.25-1.46c0-0.82,0.67-1.49,1.5-1.49
			s1.5,0.67,1.5,1.49C211.08,340.89,210.54,341.5,209.83,341.62z"/>
		<path class="st11" d="M316.05,291.1h-1.25l0,0H316.05v-2.98h-1.25v-2.97h-0.5v2.97h-1.25v2.98h1.25l0,0h-1.25l0,0h-3v1.23h-10.24
			v-7.18h-0.5v7.18h-7.25v0.5h7.25v10.18c-0.71,0.12-1.25,0.73-1.25,1.47c0,0.82,0.67,1.48,1.5,1.48c0.82,0,1.5-0.66,1.5-1.48
			c0-0.74-0.54-1.35-1.25-1.47v-10.18h10.24v1.24h3l0,0h1.25l0,0h-1.25v2.97h1.25v10.16h-10.27c-0.12-0.7-0.73-1.24-1.48-1.24
			c-0.82,0-1.49,0.67-1.49,1.49s0.67,1.49,1.49,1.49c0.75,0,1.36-0.54,1.48-1.24h10.27v7.18h0.5v-7.18h7.25v-0.5h-7.25v-10.16h1.25
			v-2.97h-1.25l0,0h1.25l0,0h3v-1.24h3v-0.5h-3v-1.23H316.05L316.05,291.1z M295.08,307.7h-3.02v-0.5h3.02
			c0.12-0.7,0.73-1.24,1.48-1.24c0.82,0,1.5,0.67,1.5,1.49s-0.68,1.49-1.5,1.49C295.81,308.94,295.2,308.4,295.08,307.7z
			 M299.81,311.89v2.99h-0.5v-2.99c-0.71-0.12-1.25-0.73-1.25-1.47c0-0.82,0.67-1.48,1.5-1.48c0.82,0,1.5,0.66,1.5,1.48
			C301.06,311.16,300.52,311.77,299.81,311.89z"/>
		<g class="st5">
			<path class="st15" d="M346.12,320.83h-1.25l0,0H346.12v-2.97h-1.25v-2.98h-0.5v2.98h-1.25v2.97h1.25l0,0h-1.25v1.24l0,0v-1.24h-3
				v1.24h-10.25v-7.19h-0.5v7.19h-7.24v0.5h7.24v10.17c-0.7,0.12-1.25,0.73-1.25,1.47c0,0.82,0.68,1.49,1.5,1.49
				c0.83,0,1.5-0.67,1.5-1.49c0-0.74-0.54-1.35-1.25-1.47v-10.17h10.25v1.23h3v-1.23l0,0v1.23l0,0v2.98h1.25v10.15H334.1
				c-0.12-0.7-0.73-1.23-1.48-1.23c-0.82,0-1.5,0.66-1.5,1.48c0,0.82,0.68,1.49,1.5,1.49c0.75,0,1.36-0.54,1.48-1.24h10.27v7.19h0.5
				v-7.19h7.25v-0.5h-7.25v-10.15h1.25v-2.98h3v-1.23h3v-0.5h-3v-1.24H346.12L346.12,320.83z M325.15,337.43h-3.02v-0.5h3.02
				c0.12-0.7,0.73-1.23,1.47-1.23c0.83,0,1.5,0.66,1.5,1.48c0,0.82-0.67,1.49-1.5,1.49C325.88,338.67,325.27,338.13,325.15,337.43z
				 M329.87,341.62v3h-0.5v-3c-0.7-0.12-1.25-0.73-1.25-1.46c0-0.83,0.68-1.49,1.5-1.49c0.83,0,1.5,0.66,1.5,1.49
				C331.12,340.89,330.58,341.5,329.87,341.62z"/>
		</g>
		<g class="st5">
			<path class="st15" d="M374.78,329.75v7.18h7.25v0.5h-7.5h-0.25v-0.25v-7.43H374.78z M359.79,329.75v7.43v0.25h-0.25h-7.5v-0.5
				h7.25v-7.18H359.79z M382.03,352.3h-7.25v7.18h-0.5v-7.43v-0.25h0.25h7.5V352.3z M359.54,351.8h0.25v0.25v7.43h-0.5v-7.18h-7.25
				v-0.5H359.54z M358.79,343.87h1.5v1.49h-1.5V343.87z M370.79,333.46h-1.5v1.49h1.5V333.46z M369.29,354.28h1.5v1.48h-1.5V354.28z
				 M357.29,340.9h-1.5v1.48h1.5V340.9z M376.78,340.9h1.5v1.48h-1.5V340.9z M367.79,351.3h-1.5v1.49h1.5V351.3z M355.79,346.84h1.5
				v1.49h-1.5V346.84z M367.79,336.44h-1.5v1.48h1.5V336.44z M376.78,346.84h1.5v1.49h-1.5V346.84z M364.79,333.46h-1.5v1.49h1.5
				V333.46z M373.78,343.87h1.5v1.49h-1.5V343.87z M364.79,354.28h-1.5v1.48h1.5V354.28z M364.54,344.61c0,1.34,1.1,2.46,2.5,2.46
				c1.39,0,2.49-1.12,2.49-2.46s-1.1-2.46-2.49-2.46C365.64,342.15,364.54,343.27,364.54,344.61z M362.54,344.61
				c0,2.47,2.01,4.46,4.5,4.46c2.48,0,4.49-1.99,4.49-4.46c0-2.46-2.01-4.46-4.49-4.46C364.55,340.15,362.54,342.15,362.54,344.61z"
				/>
		</g>
		<g class="st5">
			<path class="st7" d="M240.02,344.61v7.44h-7.5 M240.02,374.35v-7.44h-7.5 M255.01,344.61v7.44h7.5 M255.01,374.35v-7.44h7.5"/>
			<g>
				<defs>
					<rect id="SVGID_13_" x="237.76" y="349.82" width="19.5" height="19.33"/>
				</defs>
				<clipPath id="SVGID_14_">
					<use xlink:href="#SVGID_13_"  style="overflow:visible;"/>
				</clipPath>
				<g class="st30">
					<path class="st9" d="M237.77,369.14c0,5.34,4.36,9.67,9.74,9.67c5.39,0,9.75-4.33,9.75-9.67c0-5.33-4.36-9.66-9.75-9.66
						C242.13,359.48,237.77,363.81,237.77,369.14z M252.39,369.14c0,2.67-2.18,4.83-4.88,4.83c-2.69,0-4.87-2.16-4.87-4.83
						s2.18-4.83,4.87-4.83C250.21,364.31,252.39,366.47,252.39,369.14z"/>
					<path class="st15" d="M253.15,361.25c-0.32-0.21-0.64-0.42-0.98-0.6v-10.83h0.98V361.25z M254.23,362.14v-12.32h0.97v13.38
						C254.91,362.83,254.58,362.47,254.23,362.14z M256.29,364.93v-15.11h0.97v19.32l0,0C257.26,367.63,256.91,366.2,256.29,364.93z
						 M237.77,369.14h-0.01v-19.32h0.98v15.11C238.12,366.2,237.77,367.63,237.77,369.14z M239.82,363.21v-13.39h0.98v12.32
						C240.45,362.47,240.12,362.83,239.82,363.21z M241.88,361.26v-11.44h0.98v10.83C242.52,360.84,242.19,361.04,241.88,361.26z
						 M243.94,360.15v-10.33h0.97v10.01C244.58,359.92,244.26,360.03,243.94,360.15z M246,359.6v-9.78h0.97v9.67
						C246.64,359.51,246.32,359.55,246,359.6z M248.06,359.49v-9.67h0.97v9.78C248.71,359.55,248.38,359.51,248.06,359.49z
						 M250.11,359.83v-10.01h0.98v10.33C250.77,360.03,250.45,359.92,250.11,359.83z"/>
				</g>
			</g>
		</g>
		<path class="st11" d="M224.83,344.61v7.19h7.24v0.5h-7.49h-0.25v-0.25v-7.44H224.83z M209.83,344.61v7.44v0.25h-0.25h-7.5v-0.5
			h7.25v-7.19H209.83z M232.07,367.16h-7.24v7.19h-0.5v-7.44v-0.25h0.25h7.49V367.16z M209.58,366.66h0.25v0.25v7.44h-0.5v-7.19
			h-7.25v-0.5H209.58z M208.83,358.74h1.5v1.48h-1.5V358.74z M220.82,348.33h-1.5v1.49h1.5V348.33z M219.32,369.14h1.5v1.49h-1.5
			V369.14z M207.33,355.76h-1.5v1.49h1.5V355.76z M226.82,355.76h1.5v1.49h-1.5V355.76z M217.83,366.17h-1.5v1.48h1.5V366.17z
			 M205.83,361.71h1.5v1.49h-1.5V361.71z M217.83,351.3h-1.5v1.49h1.5V351.3z M226.82,361.71h1.5v1.49h-1.5V361.71z M214.83,348.33
			h-1.5v1.49h1.5V348.33z M223.82,358.74h1.5v1.48h-1.5V358.74z M214.83,369.14h-1.5v1.49h1.5V369.14z M214.58,359.48
			c0,1.34,1.1,2.46,2.5,2.46c1.39,0,2.5-1.12,2.5-2.46s-1.11-2.46-2.5-2.46C215.68,357.02,214.58,358.14,214.58,359.48z
			 M212.58,359.48c0,2.46,2.01,4.46,4.5,4.46c2.48,0,4.5-2,4.5-4.46s-2.02-4.46-4.5-4.46C214.59,355.02,212.58,357.02,212.58,359.48
			z"/>
		<path class="st11" d="M314.8,404.08v7.18h7.25v0.5h-7.5h-0.25v-0.25v-7.43H314.8z M299.81,404.08v7.43v0.25h-0.25h-7.5v-0.5h7.25
			v-7.18H299.81z M322.05,426.63h-7.25v7.18h-0.5v-7.43v-0.25h0.25h7.5V426.63z M299.56,426.13h0.25v0.25v7.43h-0.5v-7.18h-7.25
			v-0.5H299.56z M298.8,418.2h1.5v1.49h-1.5V418.2z M310.8,407.79h-1.5v1.49h1.5V407.79z M309.3,428.61h1.5v1.48h-1.5V428.61z
			 M297.31,415.23h-1.5v1.48h1.5V415.23z M316.8,415.23h1.5v1.48h-1.5V415.23z M307.8,425.63h-1.5v1.49h1.5V425.63z M295.81,421.17
			h1.5v1.49h-1.5V421.17z M307.8,410.77h-1.5v1.48h1.5V410.77z M316.8,421.17h1.5v1.49h-1.5V421.17z M304.8,407.79h-1.5v1.49h1.5
			V407.79z M313.8,418.2h1.5v1.49h-1.5V418.2z M304.8,428.61h-1.5v1.48h1.5V428.61z M304.55,418.94c0,1.35,1.11,2.46,2.5,2.46
			c1.4,0,2.5-1.11,2.5-2.46c0-1.34-1.1-2.46-2.5-2.46C305.66,416.48,304.55,417.6,304.55,418.94z M302.55,418.94
			c0,2.47,2.02,4.46,4.5,4.46c2.49,0,4.5-1.99,4.5-4.46c0-2.46-2.01-4.46-4.5-4.46C304.57,414.48,302.55,416.48,302.55,418.94z"/>
		<g class="st5">
			<path class="st15" d="M344.87,374.35v7.18h7.25v0.5h-7.5h-0.25v-0.25v-7.43H344.87z M329.87,374.35v7.43v0.25h-0.25h-7.49v-0.5
				h7.24v-7.18H329.87z M352.12,396.9h-7.25v7.18h-0.5v-7.43v-0.25h0.25h7.5V396.9z M329.62,396.4h0.25v0.25v7.43h-0.5v-7.18h-7.24
				v-0.5H329.62z M328.87,388.47h1.5v1.48h-1.5V388.47z M340.87,378.06h-1.5v1.49h1.5V378.06z M339.37,398.88h1.5v1.48h-1.5V398.88z
				 M327.37,385.5h-1.49v1.48h1.49V385.5z M346.87,385.5h1.5v1.48h-1.5V385.5z M337.87,395.9h-1.5v1.49h1.5V395.9z M325.88,391.44
				h1.49v1.49h-1.49V391.44z M337.87,381.04h-1.5v1.48h1.5V381.04z M346.87,391.44h1.5v1.49h-1.5V391.44z M334.87,378.06h-1.5v1.49
				h1.5V378.06z M343.87,388.47h1.5v1.48h-1.5V388.47z M334.87,398.88h-1.5v1.48h1.5V398.88z M334.62,389.21
				c0,1.34,1.11,2.46,2.5,2.46c1.4,0,2.5-1.12,2.5-2.46c0-1.34-1.1-2.46-2.5-2.46C335.73,386.75,334.62,387.87,334.62,389.21z
				 M332.62,389.21c0,2.46,2.02,4.46,4.5,4.46c2.49,0,4.5-2,4.5-4.46c0-2.46-2.01-4.46-4.5-4.46
				C334.64,384.75,332.62,386.75,332.62,389.21z"/>
		</g>
		<path class="st11" d="M314.8,344.61v7.19h7.25v0.5h-7.25v10.9h3.5v3.46h3.75v0.5h-3.75v3.47h-3.5v3.72h-0.5v-3.72h-3.5v-3.47
			h-10.99v7.19h-0.5v-7.19h-7.25v-0.5h7.25v-10.9h-3.5v-3.46h-3.75v-0.5h3.75v-3.47h3.5v-3.72h0.5v3.72h3.49v3.47h11v-7.19H314.8z
			 M303.3,352.3h11v10.9h-2.79l-8.21-8.14V352.3z M302.6,355.76l8.2,8.14v2.76h-10.99v-10.9H302.6z"/>
		<path class="st11" d="M344.79,344.61v7.19h7.25v0.5h-7.25v10.9h3.51v3.46h3.74v0.5h-3.74v3.47h-3.51v3.72h-0.5v-3.72h-3.49v-3.47
			h-11v7.19h-0.5v-7.19h-7.25v-0.5h7.25v-10.9h-3.5v-3.46h-3.75v-0.5h3.75v-3.47h3.5v-3.72h0.5v3.72h3.5v3.47h10.99v-7.19H344.79z
			 M333.3,352.3h10.99v10.9h-2.78l-8.21-8.14V352.3z M332.59,355.76l8.21,8.14v2.76h-11v-10.9H332.59z"/>
		<path class="st11" d="M374.86,359.48v7.18h7.25v0.5h-7.25v10.9h3.5v3.47h3.75v0.5h-3.75v3.46h-3.5v3.72h-0.5v-3.72h-3.49v-3.46
			h-11v7.18h-0.5v-7.18h-7.25v-0.5h7.25v-10.9h-3.5v-3.47h-3.75v-0.5h3.75v-3.46h3.5v-3.72h0.5v3.72h3.5v3.46h10.99v-7.18H374.86z
			 M363.37,367.16h10.99v10.9h-2.79l-8.2-8.13V367.16z M362.66,370.63l8.21,8.14v2.76h-11v-10.9H362.66z"/>
		<path class="st11" d="M344.79,404.08v7.18h7.25v0.5h-7.25v10.9h3.51v3.47h3.74v0.5h-3.74v3.46h-3.51v3.72h-0.5v-3.72h-3.49v-3.46
			h-11v7.18h-0.5v-7.18h-7.25v-0.5h7.25v-10.9h-3.5v-3.47h-3.75v-0.5h3.75v-3.47h3.5v-3.71h0.5v3.71h3.5v3.47h10.99v-7.18H344.79z
			 M333.3,411.76h10.99v10.9h-2.78l-8.21-8.14V411.76z M332.59,415.23l8.21,8.13v2.77h-11v-10.9H332.59z"/>
		<path class="st11" d="M314.8,314.88v7.19h7.25v0.5h-7.25v10.9h3.5v3.46h3.75v0.5h-3.75v3.47h-3.5v3.71h-0.5v-3.71h-3.5v-3.47
			h-10.99v7.18h-0.5v-7.18h-7.25v-0.5h7.25v-10.9h-3.5v-3.46h-3.75v-0.5h3.75v-3.47h3.5v-3.72h0.5v3.72h3.49v3.47h11v-7.19H314.8z
			 M303.3,322.57h11v10.9h-2.79l-8.21-8.14V322.57z M302.59,326.03l8.21,8.14v2.76h-10.99v-10.9H302.59z"/>
		<g class="st18">
			<path class="st11" d="M316.05,381.53v-1.24h-1.25v-5.95h-0.5v5.95h-1.25v2.97h3v-1.23h6v-0.5H316.05z M299.8,374.34v5.95h1.25
				l0,0h3v2.97h3v-2.97h3v2.97h3v2.98h-3v-2.98h-3v2.98h-3l0,0h-3l0,0h-1.25l0,0h1.25l0,0h3l0,0h3l0,0h3v2.97h3v2.97l0,0v2.98h-3
				l0,0h-3l0,0h-3l0,0h-3l0,0h-1.25l0,0h1.25l0,0h3l0,0h3l0,0h3l0,0h3v1.23l0,0v-1.23h3v1.23h6v0.5h-6v1.24l0,0l0,0l-1.25,0.62v5.33
				h-0.5V399l-7.25,3.59L299.8,399v5.08h-0.5v-5.33l-1.24-0.62h-0.01l0,0v-1.24h-5.99v-0.5h5.99v-1.23h1.25l0,0h-1.25v-2.98l0,0
				v-2.97l0,0v-2.97h1.25l0,0h-1.25v-2.98l0,0v-1.23h-5.99v-0.5h5.99v-1.24h1.25v-5.95H299.8z M313.05,398.13v-1.24l0,0V398.13
				L313.05,398.13z M316.05,392.18h-3v2.98h3V392.18z M313.05,386.24h3v2.97h-3V386.24z"/>
		</g>
		<g class="st18">
			<path class="st7" d="M194.58,106.75v7.43h-7.5 M194.58,136.49v-7.43h-7.5 M209.57,106.75v7.43h7.5 M209.57,136.49v-7.43h7.5"/>
			<g>
				<defs>
					<rect id="SVGID_15_" x="192.32" y="111.96" width="19.5" height="19.33"/>
				</defs>
				<clipPath id="SVGID_16_">
					<use xlink:href="#SVGID_15_"  style="overflow:visible;"/>
				</clipPath>
				<g class="st31">
					<ellipse class="st9" cx="204.51" cy="114.38" rx="2.44" ry="2.42"/>
					<ellipse class="st9" cx="194.77" cy="119.21" rx="2.44" ry="2.42"/>
					<ellipse class="st9" cx="194.77" cy="128.87" rx="2.44" ry="2.42"/>
					<ellipse class="st9" cx="199.64" cy="128.87" rx="2.44" ry="2.42"/>
					<ellipse class="st9" cx="209.39" cy="128.87" rx="2.44" ry="2.42"/>
					<ellipse class="st9" cx="204.51" cy="124.04" rx="2.44" ry="2.42"/>
					<ellipse class="st9" cx="199.64" cy="124.04" rx="2.44" ry="2.42"/>
					<ellipse class="st9" cx="194.77" cy="124.04" rx="2.44" ry="2.42"/>
					<ellipse class="st9" cx="199.64" cy="119.21" rx="2.44" ry="2.42"/>
					<ellipse class="st9" cx="204.51" cy="119.21" rx="2.44" ry="2.42"/>
					<path class="st9" d="M202.08,114.38c0,1.33-1.09,2.41-2.44,2.41h-4.87c-1.35,0-2.44-1.08-2.44-2.41c0-1.34,1.09-2.42,2.44-2.42
						h4.87C200.99,111.96,202.08,113.04,202.08,114.38z"/>
					<path class="st9" d="M209.39,121.62c-1.35,0-2.44-1.08-2.44-2.42v-4.83c0-1.34,1.09-2.42,2.44-2.42c1.34,0,2.43,1.08,2.43,2.42
						v4.83C211.82,120.54,210.73,121.62,209.39,121.62z"/>
				</g>
			</g>
		</g>
	</g>
</g>
</svg>
